{"glyphs":{"0":{"ha":954,"x_min":92,"x_max":863,"o":"m 478 -14 q 190 107 288 -14 q 92 479 92 228 q 190 851 92 731 q 478 972 288 972 q 765 851 668 972 q 863 479 863 731 q 765 107 863 228 q 478 -14 668 -14 m 478 65 q 697 147 626 65 q 768 401 768 229 l 768 558 q 697 811 768 729 q 478 893 626 893 q 258 811 331 893 q 186 558 186 729 l 186 401 q 258 147 186 229 q 478 65 331 65 m 226 104 l 667 879 l 728 854 l 289 79 l 226 104 z "},"1":{"ha":669,"x_min":71,"x_max":639,"o":"m 71 0 l 71 75 l 310 75 l 310 863 l 75 742 l 75 818 l 346 958 l 399 958 l 399 75 l 639 75 l 639 0 l 71 0 z "},"2":{"ha":876,"x_min":96,"x_max":789,"o":"m 96 0 l 96 153 q 154 352 96 281 q 339 460 213 424 l 511 507 q 658 576 615 535 q 701 686 701 618 l 701 704 q 633 844 701 794 q 447 893 565 893 q 259 835 321 893 q 197 682 197 776 l 197 682 l 104 682 q 213 902 129 832 q 447 972 297 972 q 698 899 607 972 q 789 699 789 826 l 789 690 q 732 528 789 589 q 549 432 675 468 l 376 385 q 227 306 271 357 q 183 156 183 254 l 183 40 l 136 79 l 778 79 l 778 0 l 96 0 z "},"3":{"ha":883,"x_min":88,"x_max":785,"o":"m 435 -14 q 199 55 283 -14 q 88 276 114 124 l 181 276 l 181 274 q 243 121 181 178 q 435 64 306 64 q 624 114 556 64 q 693 251 693 164 l 693 274 q 522 453 693 453 l 304 453 l 304 525 l 519 525 q 689 697 689 525 l 689 714 q 621 847 689 800 q 435 894 553 894 q 247 838 308 894 q 185 683 185 781 l 185 682 l 92 682 q 201 903 117 833 q 435 972 285 972 q 688 902 596 972 q 781 704 781 832 q 740 567 781 619 q 626 504 700 515 l 626 474 q 743 408 701 463 q 785 264 785 354 q 692 59 785 132 q 435 -14 599 -14 z "},"4":{"ha":890,"x_min":71,"x_max":836,"o":"m 71 257 l 71 335 l 504 958 l 644 958 l 644 335 l 836 335 l 836 257 l 644 257 l 644 0 l 558 0 l 558 257 l 71 257 m 167 335 l 558 335 l 558 879 l 543 879 l 167 335 z "},"5":{"ha":896,"x_min":117,"x_max":814,"o":"m 464 -14 q 228 55 313 -14 q 117 276 143 124 l 210 276 l 210 276 q 272 122 210 179 q 464 64 335 64 q 722 301 722 64 l 722 313 q 464 550 722 550 q 315 521 378 550 q 213 449 253 492 l 124 449 l 124 958 l 774 958 l 774 879 l 210 879 l 210 689 q 206 618 210 657 q 196 514 203 579 l 226 514 q 323 596 256 567 q 483 625 390 625 q 726 542 639 625 q 814 307 814 460 q 724 69 814 151 q 464 -14 633 -14 z "},"6":{"ha":897,"x_min":96,"x_max":811,"o":"m 458 -14 q 251 36 331 -14 q 133 194 171 86 q 96 479 96 303 q 181 857 96 742 q 456 972 267 972 q 671 915 590 972 q 783 731 751 857 l 689 731 l 689 731 q 664 805 689 767 q 587 869 639 843 q 456 894 535 894 q 263 825 331 894 q 194 628 194 756 l 194 625 q 192 567 194 599 q 185 488 190 535 l 215 488 q 318 592 254 560 q 479 625 382 625 q 724 542 636 625 q 811 307 811 460 q 720 69 811 151 q 458 -14 629 -14 m 461 64 q 719 301 719 64 l 719 313 q 461 550 719 550 q 273 489 339 550 q 207 313 207 428 l 207 301 q 273 125 207 186 q 461 64 339 64 z "},"7":{"ha":769,"x_min":44,"x_max":711,"o":"m 203 0 l 640 936 l 676 879 l 44 879 l 44 958 l 711 958 l 711 879 l 301 0 l 203 0 z "},"8":{"ha":910,"x_min":94,"x_max":815,"o":"m 454 -14 q 190 58 286 -14 q 94 260 94 129 q 257 481 94 453 l 257 497 q 103 708 103 525 q 197 903 103 835 q 454 972 290 972 q 713 903 619 972 q 806 708 806 835 q 651 497 806 525 l 651 481 q 815 260 815 453 q 719 58 815 129 q 454 -14 624 -14 m 454 64 q 655 110 586 64 q 724 249 724 157 l 724 271 q 655 408 724 363 q 454 454 586 454 q 255 408 324 454 q 186 271 186 363 l 186 249 q 255 110 186 157 q 454 64 324 64 m 454 524 q 648 568 582 524 q 714 700 714 613 l 714 718 q 648 849 714 804 q 454 894 582 894 q 261 849 328 894 q 194 718 194 804 l 194 700 q 261 568 194 613 q 454 524 328 524 z "},"9":{"ha":897,"x_min":86,"x_max":801,"o":"m 438 972 q 646 922 565 972 q 764 764 726 872 q 801 479 801 656 q 716 101 801 217 q 440 -14 631 -14 q 225 44 306 -14 q 113 228 144 101 l 207 228 l 207 228 q 233 153 207 192 q 310 90 258 115 q 440 64 361 64 q 634 133 565 64 q 703 331 703 203 l 703 333 q 705 392 703 360 q 713 471 707 424 l 681 471 q 578 366 642 399 q 418 333 514 333 q 174 416 263 333 q 86 651 86 499 q 177 890 86 808 q 438 972 268 972 m 436 894 q 178 657 178 894 l 178 646 q 436 408 178 408 q 624 469 558 408 q 689 646 689 531 l 689 657 q 624 833 689 772 q 436 894 558 894 z "},"A":{"ha":925,"x_min":43,"x_max":881,"o":"m 43 0 l 406 958 l 518 958 l 881 0 l 788 0 l 468 867 l 453 867 l 133 0 l 43 0 m 175 257 l 196 335 l 725 335 l 746 257 l 175 257 z "},"Á":{"ha":925,"x_min":43,"x_max":881,"o":"m 43 0 l 406 958 l 518 958 l 881 0 l 788 0 l 468 867 l 453 867 l 133 0 l 43 0 m 175 257 l 196 335 l 725 335 l 746 257 l 175 257 m 396 1031 l 499 1236 l 594 1236 l 460 1031 l 396 1031 z "},"Ă":{"ha":925,"x_min":43,"x_max":881,"o":"m 43 0 l 406 958 l 518 958 l 881 0 l 788 0 l 468 867 l 453 867 l 133 0 l 43 0 m 175 257 l 196 335 l 725 335 l 746 257 l 175 257 m 463 1025 q 323 1074 374 1025 q 264 1236 272 1124 l 338 1236 l 338 1236 q 370 1123 338 1157 q 463 1089 403 1089 q 555 1123 522 1089 q 588 1236 588 1157 l 588 1236 l 661 1236 q 602 1074 653 1124 q 463 1025 551 1025 z "},"Â":{"ha":925,"x_min":43,"x_max":881,"o":"m 43 0 l 406 958 l 518 958 l 881 0 l 788 0 l 468 867 l 453 867 l 133 0 l 43 0 m 175 257 l 196 335 l 725 335 l 746 257 l 175 257 m 254 1031 l 424 1236 l 501 1236 l 671 1031 l 597 1031 l 471 1167 l 454 1167 l 328 1031 l 254 1031 z "},"Ä":{"ha":925,"x_min":43,"x_max":881,"o":"m 43 0 l 406 958 l 518 958 l 881 0 l 788 0 l 468 867 l 453 867 l 133 0 l 43 0 m 175 257 l 196 335 l 725 335 l 746 257 l 175 257 m 268 1088 l 268 1192 l 381 1192 l 381 1088 l 268 1088 m 544 1088 l 544 1192 l 657 1192 l 657 1088 l 544 1088 z "},"À":{"ha":925,"x_min":43,"x_max":881,"o":"m 43 0 l 406 958 l 518 958 l 881 0 l 788 0 l 468 867 l 453 867 l 133 0 l 43 0 m 175 257 l 196 335 l 725 335 l 746 257 l 175 257 m 454 1031 l 319 1236 l 415 1236 l 518 1031 l 454 1031 z "},"Ā":{"ha":925,"x_min":43,"x_max":881,"o":"m 43 0 l 406 958 l 518 958 l 881 0 l 788 0 l 468 867 l 453 867 l 133 0 l 43 0 m 175 257 l 196 335 l 725 335 l 746 257 l 175 257 m 268 1099 l 268 1165 l 657 1165 l 657 1099 l 268 1099 z "},"Ą":{"ha":925,"x_min":43,"x_max":900,"o":"m 760 -222 q 661 -144 661 -222 q 688 -69 661 -108 q 788 -4 715 -31 l 788 21 l 881 0 q 759 -72 792 -39 q 726 -128 726 -104 q 769 -162 726 -162 l 900 -162 l 900 -222 l 760 -222 m 43 0 l 406 958 l 518 958 l 881 0 l 788 0 l 468 867 l 453 867 l 133 0 l 43 0 m 175 257 l 196 335 l 725 335 l 746 257 l 175 257 z "},"Å":{"ha":925,"x_min":43,"x_max":881,"o":"m 43 0 l 406 958 l 518 958 l 881 0 l 788 0 l 468 867 l 453 867 l 133 0 l 43 0 m 175 257 l 196 335 l 725 335 l 746 257 l 175 257 m 463 1019 q 361 1056 400 1019 q 322 1153 322 1093 q 361 1250 322 1214 q 463 1286 400 1286 q 565 1250 526 1286 q 603 1153 603 1214 q 565 1056 603 1093 q 463 1019 526 1019 m 463 1072 q 539 1151 539 1072 l 539 1154 q 463 1233 539 1233 q 386 1154 386 1233 l 386 1151 q 463 1072 386 1072 z "},"Ã":{"ha":925,"x_min":43,"x_max":881,"o":"m 43 0 l 406 958 l 518 958 l 881 0 l 788 0 l 468 867 l 453 867 l 133 0 l 43 0 m 175 257 l 196 335 l 725 335 l 746 257 l 175 257 m 549 1042 q 485 1063 507 1042 q 448 1111 463 1083 q 419 1160 433 1139 q 376 1181 404 1181 q 328 1128 328 1181 l 328 1047 l 269 1047 l 269 1131 q 298 1213 269 1183 q 376 1242 326 1242 q 440 1221 418 1242 q 477 1172 463 1200 q 507 1124 492 1144 q 549 1103 522 1103 q 597 1156 597 1103 l 597 1236 l 656 1236 l 656 1153 q 627 1072 656 1101 q 549 1042 599 1042 z "},"Æ":{"ha":1328,"x_min":11,"x_max":1258,"o":"m 11 0 l 575 958 l 678 958 l 663 867 l 614 867 l 111 0 l 11 0 m 204 257 l 226 332 l 665 332 l 665 257 l 204 257 m 629 0 l 629 958 l 1253 958 l 1253 879 l 718 879 l 718 528 l 1147 528 l 1147 450 l 718 450 l 718 79 l 1258 79 l 1258 0 l 629 0 z "},"B":{"ha":903,"x_min":147,"x_max":813,"o":"m 147 0 l 147 958 l 553 958 q 737 892 671 958 q 803 704 803 825 q 650 497 803 522 l 650 481 q 813 264 813 456 q 744 69 813 139 q 557 0 676 0 l 147 0 m 549 79 q 719 250 719 79 l 719 279 q 549 450 719 450 l 236 450 l 236 79 l 549 79 m 546 528 q 710 692 710 528 l 710 715 q 546 879 710 879 l 236 879 l 236 528 l 546 528 z "},"C":{"ha":969,"x_min":88,"x_max":885,"o":"m 493 -14 q 194 111 300 -14 q 88 479 88 236 q 194 847 88 722 q 493 972 300 972 q 758 885 657 972 q 883 629 858 797 l 792 629 l 792 640 q 760 767 792 710 q 663 858 729 824 q 493 893 597 893 q 258 803 333 893 q 182 526 182 714 l 182 432 q 258 155 182 244 q 493 65 333 65 q 663 101 597 65 q 760 196 729 136 q 792 326 792 256 l 792 340 l 885 340 q 761 76 863 167 q 493 -14 660 -14 z "},"Ć":{"ha":969,"x_min":88,"x_max":885,"o":"m 493 -14 q 194 111 300 -14 q 88 479 88 236 q 194 847 88 722 q 493 972 300 972 q 758 885 657 972 q 883 629 858 797 l 792 629 l 792 640 q 760 767 792 710 q 663 858 729 824 q 493 893 597 893 q 258 803 333 893 q 182 526 182 714 l 182 432 q 258 155 182 244 q 493 65 333 65 q 663 101 597 65 q 760 196 729 136 q 792 326 792 256 l 792 340 l 885 340 q 761 76 863 167 q 493 -14 660 -14 m 426 1031 l 529 1236 l 625 1236 l 490 1031 l 426 1031 z "},"Č":{"ha":969,"x_min":88,"x_max":885,"o":"m 493 -14 q 194 111 300 -14 q 88 479 88 236 q 194 847 88 722 q 493 972 300 972 q 758 885 657 972 q 883 629 858 797 l 792 629 l 792 640 q 760 767 792 710 q 663 858 729 824 q 493 893 597 893 q 258 803 333 893 q 182 526 182 714 l 182 432 q 258 155 182 244 q 493 65 333 65 q 663 101 597 65 q 760 196 729 136 q 792 326 792 256 l 792 340 l 885 340 q 761 76 863 167 q 493 -14 660 -14 m 701 1236 l 532 1031 l 454 1031 l 285 1236 l 358 1236 l 485 1101 l 501 1101 l 628 1236 l 701 1236 z "},"Ç":{"ha":969,"x_min":88,"x_max":885,"o":"m 493 -14 q 194 111 300 -14 q 88 479 88 236 q 194 847 88 722 q 493 972 300 972 q 758 885 657 972 q 883 629 858 797 l 792 629 l 792 640 q 760 767 792 710 q 663 858 729 824 q 493 893 597 893 q 258 803 333 893 q 182 526 182 714 l 182 432 q 258 155 182 244 q 493 65 333 65 q 663 101 597 65 q 760 196 729 136 q 792 326 792 256 l 792 340 l 885 340 q 761 76 863 167 q 493 -14 660 -14 m 389 -242 l 389 -182 l 554 -182 q 597 -147 597 -182 q 554 -112 597 -112 l 460 -112 l 460 14 l 526 14 l 526 -83 l 501 -61 l 558 -61 q 668 -150 668 -61 q 558 -242 668 -242 l 389 -242 z "},"Ċ":{"ha":969,"x_min":88,"x_max":885,"o":"m 493 -14 q 194 111 300 -14 q 88 479 88 236 q 194 847 88 722 q 493 972 300 972 q 758 885 657 972 q 883 629 858 797 l 792 629 l 792 640 q 760 767 792 710 q 663 858 729 824 q 493 893 597 893 q 258 803 333 893 q 182 526 182 714 l 182 432 q 258 155 182 244 q 493 65 333 65 q 663 101 597 65 q 760 196 729 136 q 792 326 792 256 l 792 340 l 885 340 q 761 76 863 167 q 493 -14 660 -14 m 439 1088 l 439 1192 l 547 1192 l 547 1088 l 439 1088 z "},"D":{"ha":983,"x_min":146,"x_max":894,"o":"m 146 0 l 146 958 l 492 958 q 793 842 692 958 q 894 479 894 726 q 793 116 894 232 q 492 0 692 0 l 146 0 m 235 79 l 483 79 q 722 162 644 79 q 800 433 800 244 l 800 525 q 722 797 800 714 q 483 879 644 879 l 235 879 l 235 79 z "},"Ď":{"ha":983,"x_min":146,"x_max":894,"o":"m 146 0 l 146 958 l 492 958 q 793 842 692 958 q 894 479 894 726 q 793 116 894 232 q 492 0 692 0 l 146 0 m 235 79 l 483 79 q 722 162 644 79 q 800 433 800 244 l 800 525 q 722 797 800 714 q 483 879 644 879 l 235 879 l 235 79 m 681 1236 l 511 1031 l 433 1031 l 264 1236 l 338 1236 l 464 1101 l 481 1101 l 607 1236 l 681 1236 z "},"Đ":{"ha":1029,"x_min":54,"x_max":936,"o":"m 54 453 l 54 525 l 560 525 l 560 453 l 54 453 m 188 0 l 188 958 l 533 958 q 835 842 733 958 q 936 479 936 726 q 835 116 936 232 q 533 0 733 0 l 188 0 m 276 79 l 525 79 q 764 162 686 79 q 842 433 842 244 l 842 525 q 764 797 842 714 q 525 879 686 879 l 276 879 l 276 79 z "},"Ð":{"ha":1029,"x_min":54,"x_max":936,"o":"m 54 453 l 54 525 l 560 525 l 560 453 l 54 453 m 188 0 l 188 958 l 533 958 q 835 842 733 958 q 936 479 936 726 q 835 116 936 232 q 533 0 733 0 l 188 0 m 276 79 l 525 79 q 764 162 686 79 q 842 433 842 244 l 842 525 q 764 797 842 714 q 525 879 686 879 l 276 879 l 276 79 z "},"E":{"ha":846,"x_min":147,"x_max":776,"o":"m 147 0 l 147 958 l 771 958 l 771 879 l 236 879 l 236 528 l 665 528 l 665 450 l 236 450 l 236 79 l 776 79 l 776 0 l 147 0 z "},"É":{"ha":846,"x_min":147,"x_max":776,"o":"m 147 0 l 147 958 l 771 958 l 771 879 l 236 879 l 236 528 l 665 528 l 665 450 l 236 450 l 236 79 l 776 79 l 776 0 l 147 0 m 403 1031 l 506 1236 l 601 1236 l 467 1031 l 403 1031 z "},"Ě":{"ha":846,"x_min":147,"x_max":776,"o":"m 147 0 l 147 958 l 771 958 l 771 879 l 236 879 l 236 528 l 665 528 l 665 450 l 236 450 l 236 79 l 776 79 l 776 0 l 147 0 m 664 1236 l 494 1031 l 417 1031 l 247 1236 l 321 1236 l 447 1101 l 464 1101 l 590 1236 l 664 1236 z "},"Ê":{"ha":846,"x_min":147,"x_max":776,"o":"m 147 0 l 147 958 l 771 958 l 771 879 l 236 879 l 236 528 l 665 528 l 665 450 l 236 450 l 236 79 l 776 79 l 776 0 l 147 0 m 261 1031 l 431 1236 l 508 1236 l 678 1031 l 604 1031 l 478 1167 l 461 1167 l 335 1031 l 261 1031 z "},"Ë":{"ha":846,"x_min":147,"x_max":776,"o":"m 147 0 l 147 958 l 771 958 l 771 879 l 236 879 l 236 528 l 665 528 l 665 450 l 236 450 l 236 79 l 776 79 l 776 0 l 147 0 m 275 1088 l 275 1192 l 388 1192 l 388 1088 l 275 1088 m 551 1088 l 551 1192 l 664 1192 l 664 1088 l 551 1088 z "},"Ė":{"ha":846,"x_min":147,"x_max":776,"o":"m 147 0 l 147 958 l 771 958 l 771 879 l 236 879 l 236 528 l 665 528 l 665 450 l 236 450 l 236 79 l 776 79 l 776 0 l 147 0 m 401 1088 l 401 1192 l 510 1192 l 510 1088 l 401 1088 z "},"È":{"ha":846,"x_min":147,"x_max":776,"o":"m 147 0 l 147 958 l 771 958 l 771 879 l 236 879 l 236 528 l 665 528 l 665 450 l 236 450 l 236 79 l 776 79 l 776 0 l 147 0 m 461 1031 l 326 1236 l 422 1236 l 525 1031 l 461 1031 z "},"Ē":{"ha":846,"x_min":147,"x_max":776,"o":"m 147 0 l 147 958 l 771 958 l 771 879 l 236 879 l 236 528 l 665 528 l 665 450 l 236 450 l 236 79 l 776 79 l 776 0 l 147 0 m 261 1099 l 261 1165 l 650 1165 l 650 1099 l 261 1099 z "},"Ę":{"ha":846,"x_min":147,"x_max":796,"o":"m 147 0 l 147 958 l 771 958 l 771 879 l 236 879 l 236 528 l 665 528 l 665 450 l 236 450 l 236 79 l 776 79 l 776 0 l 147 0 m 656 -222 q 557 -144 557 -222 q 581 -73 557 -108 q 661 -15 606 -37 l 661 18 l 776 0 q 655 -72 688 -39 q 622 -128 622 -104 q 665 -162 622 -162 l 796 -162 l 796 -222 l 656 -222 z "},"F":{"ha":822,"x_min":147,"x_max":771,"o":"m 147 0 l 147 958 l 771 958 l 771 879 l 236 879 l 236 528 l 665 528 l 665 450 l 236 450 l 236 0 l 147 0 z "},"G":{"ha":1004,"x_min":86,"x_max":892,"o":"m 483 -14 q 269 42 358 -14 q 133 208 181 99 q 86 479 86 318 q 194 847 86 722 q 494 972 301 972 q 747 893 649 972 q 878 663 846 814 l 785 663 l 785 665 q 756 773 785 721 q 662 859 726 825 q 492 893 597 893 q 258 803 333 893 q 182 526 182 714 l 182 433 q 258 155 182 244 q 493 65 333 65 q 729 149 653 65 q 806 383 806 232 l 806 468 l 863 411 l 499 411 l 499 488 l 892 488 l 892 0 l 814 0 l 814 168 l 799 168 q 734 78 774 119 q 633 11 694 36 q 483 -14 572 -14 z "},"Ğ":{"ha":1004,"x_min":86,"x_max":892,"o":"m 483 -14 q 269 42 358 -14 q 133 208 181 99 q 86 479 86 318 q 194 847 86 722 q 494 972 301 972 q 747 893 649 972 q 878 663 846 814 l 785 663 l 785 665 q 756 773 785 721 q 662 859 726 825 q 492 893 597 893 q 258 803 333 893 q 182 526 182 714 l 182 433 q 258 155 182 244 q 493 65 333 65 q 729 149 653 65 q 806 383 806 232 l 806 468 l 863 411 l 499 411 l 499 488 l 892 488 l 892 0 l 814 0 l 814 168 l 799 168 q 734 78 774 119 q 633 11 694 36 q 483 -14 572 -14 m 494 1025 q 355 1074 406 1025 q 296 1236 304 1124 l 369 1236 l 369 1236 q 402 1123 369 1157 q 494 1089 435 1089 q 587 1123 554 1089 q 619 1236 619 1157 l 619 1236 l 693 1236 q 634 1074 685 1124 q 494 1025 583 1025 z "},"Ģ":{"ha":1004,"x_min":86,"x_max":892,"o":"m 483 -14 q 269 42 358 -14 q 133 208 181 99 q 86 479 86 318 q 194 847 86 722 q 494 972 301 972 q 747 893 649 972 q 878 663 846 814 l 785 663 l 785 665 q 756 773 785 721 q 662 859 726 825 q 492 893 597 893 q 258 803 333 893 q 182 526 182 714 l 182 433 q 258 155 182 244 q 493 65 333 65 q 729 149 653 65 q 806 383 806 232 l 806 468 l 863 411 l 499 411 l 499 488 l 892 488 l 892 0 l 814 0 l 814 168 l 799 168 q 734 78 774 119 q 633 11 694 36 q 483 -14 572 -14 m 433 -318 l 492 -187 l 439 -187 l 439 -83 l 547 -83 l 547 -187 l 485 -318 l 433 -318 z "},"Ġ":{"ha":1004,"x_min":86,"x_max":892,"o":"m 483 -14 q 269 42 358 -14 q 133 208 181 99 q 86 479 86 318 q 194 847 86 722 q 494 972 301 972 q 747 893 649 972 q 878 663 846 814 l 785 663 l 785 665 q 756 773 785 721 q 662 859 726 825 q 492 893 597 893 q 258 803 333 893 q 182 526 182 714 l 182 433 q 258 155 182 244 q 493 65 333 65 q 729 149 653 65 q 806 383 806 232 l 806 468 l 863 411 l 499 411 l 499 488 l 892 488 l 892 0 l 814 0 l 814 168 l 799 168 q 734 78 774 119 q 633 11 694 36 q 483 -14 572 -14 m 440 1088 l 440 1192 l 549 1192 l 549 1088 l 440 1088 z "},"H":{"ha":969,"x_min":146,"x_max":824,"o":"m 735 0 l 735 958 l 824 958 l 824 0 l 735 0 m 146 0 l 146 958 l 235 958 l 235 0 l 146 0 m 189 450 l 189 528 l 779 528 l 779 450 l 189 450 z "},"Ħ":{"ha":1053,"x_min":54,"x_max":999,"o":"m 776 0 l 776 958 l 865 958 l 865 0 l 776 0 m 188 0 l 188 958 l 276 958 l 276 0 l 188 0 m 231 450 l 231 528 l 821 528 l 821 450 l 231 450 m 54 711 l 54 783 l 999 783 l 999 711 l 54 711 z "},"I":{"ha":517,"x_min":65,"x_max":450,"o":"m 65 0 l 65 79 l 213 79 l 213 879 l 65 879 l 65 958 l 450 958 l 450 879 l 301 879 l 301 79 l 450 79 l 450 0 l 65 0 z "},"Ĳ":{"ha":958,"x_min":128,"x_max":829,"o":"m 478 -14 q 215 83 301 -14 q 128 336 128 179 l 128 340 l 217 340 l 217 319 q 279 134 217 203 q 478 65 342 65 q 681 136 622 65 q 740 360 740 207 l 740 958 l 829 958 l 829 390 q 745 85 829 185 q 478 -14 661 -14 m 129 518 l 129 958 l 213 958 l 213 518 l 129 518 z "},"Í":{"ha":517,"x_min":65,"x_max":450,"o":"m 65 0 l 65 79 l 213 79 l 213 879 l 65 879 l 65 958 l 450 958 l 450 879 l 301 879 l 301 79 l 450 79 l 450 0 l 65 0 m 190 1031 l 293 1236 l 389 1236 l 254 1031 l 190 1031 z "},"Î":{"ha":517,"x_min":49,"x_max":465,"o":"m 65 0 l 65 79 l 213 79 l 213 879 l 65 879 l 65 958 l 450 958 l 450 879 l 301 879 l 301 79 l 450 79 l 450 0 l 65 0 m 49 1031 l 218 1236 l 296 1236 l 465 1031 l 392 1031 l 265 1167 l 249 1167 l 122 1031 l 49 1031 z "},"Ï":{"ha":517,"x_min":65,"x_max":450,"o":"m 65 0 l 65 79 l 213 79 l 213 879 l 65 879 l 65 958 l 450 958 l 450 879 l 301 879 l 301 79 l 450 79 l 450 0 l 65 0 m 94 1088 l 94 1192 l 207 1192 l 207 1088 l 94 1088 m 307 1088 l 307 1192 l 419 1192 l 419 1088 l 307 1088 z "},"İ":{"ha":517,"x_min":65,"x_max":450,"o":"m 65 0 l 65 79 l 213 79 l 213 879 l 65 879 l 65 958 l 450 958 l 450 879 l 301 879 l 301 79 l 450 79 l 450 0 l 65 0 m 203 1088 l 203 1192 l 311 1192 l 311 1088 l 203 1088 z "},"Ì":{"ha":517,"x_min":65,"x_max":450,"o":"m 65 0 l 65 79 l 213 79 l 213 879 l 65 879 l 65 958 l 450 958 l 450 879 l 301 879 l 301 79 l 450 79 l 450 0 l 65 0 m 249 1031 l 114 1236 l 210 1236 l 313 1031 l 249 1031 z "},"Ī":{"ha":517,"x_min":63,"x_max":451,"o":"m 65 0 l 65 79 l 213 79 l 213 879 l 65 879 l 65 958 l 450 958 l 450 879 l 301 879 l 301 79 l 450 79 l 450 0 l 65 0 m 63 1099 l 63 1165 l 451 1165 l 451 1099 l 63 1099 z "},"Į":{"ha":517,"x_min":65,"x_max":469,"o":"m 65 0 l 65 79 l 213 79 l 213 879 l 65 879 l 65 958 l 450 958 l 450 879 l 301 879 l 301 79 l 450 79 l 450 0 l 65 0 m 329 -222 q 231 -144 231 -222 q 255 -73 231 -108 q 335 -15 279 -37 l 335 18 l 450 0 q 328 -72 361 -39 q 296 -128 296 -104 q 339 -162 296 -162 l 469 -162 l 469 -222 l 329 -222 z "},"J":{"ha":853,"x_min":61,"x_max":719,"o":"m 390 -14 q 142 78 222 -14 q 61 354 61 169 l 61 356 l 150 356 l 150 335 q 205 129 150 193 q 390 65 260 65 q 575 131 519 65 q 631 351 631 197 l 631 958 l 719 958 l 719 382 q 640 81 719 176 q 390 -14 560 -14 z "},"K":{"ha":888,"x_min":151,"x_max":864,"o":"m 151 0 l 151 958 l 240 958 l 240 504 l 725 958 l 843 958 l 301 454 l 292 540 l 864 0 l 742 0 l 240 474 l 240 0 l 151 0 z "},"Ķ":{"ha":888,"x_min":151,"x_max":864,"o":"m 151 0 l 151 958 l 240 958 l 240 504 l 725 958 l 843 958 l 301 454 l 292 540 l 864 0 l 742 0 l 240 474 l 240 0 l 151 0 m 431 -318 l 489 -187 l 436 -187 l 436 -83 l 544 -83 l 544 -187 l 482 -318 l 431 -318 z "},"L":{"ha":807,"x_min":146,"x_max":756,"o":"m 146 0 l 146 958 l 235 958 l 235 79 l 756 79 l 756 0 l 146 0 z "},"Ĺ":{"ha":807,"x_min":146,"x_max":756,"o":"m 146 0 l 146 958 l 235 958 l 235 79 l 756 79 l 756 0 l 146 0 m 151 1031 l 254 1236 l 350 1236 l 215 1031 l 151 1031 z "},"Ľ":{"ha":807,"x_min":146,"x_max":756,"o":"m 146 0 l 146 958 l 235 958 l 235 79 l 756 79 l 756 0 l 146 0 m 413 686 l 413 958 l 490 958 l 463 686 l 413 686 z "},"Ļ":{"ha":807,"x_min":146,"x_max":756,"o":"m 146 0 l 146 958 l 235 958 l 235 79 l 756 79 l 756 0 l 146 0 m 390 -318 l 449 -187 l 396 -187 l 396 -83 l 504 -83 l 504 -187 l 442 -318 l 390 -318 z "},"Ŀ":{"ha":807,"x_min":146,"x_max":756,"o":"m 146 0 l 146 958 l 235 958 l 235 79 l 756 79 l 756 0 l 146 0 m 549 492 l 549 597 l 660 597 l 660 492 l 549 492 z "},"Ł":{"ha":849,"x_min":56,"x_max":799,"o":"m 56 274 l 56 347 l 569 608 l 569 535 l 56 274 m 189 0 l 189 958 l 279 958 l 279 79 l 799 79 l 799 0 l 189 0 z "},"M":{"ha":1281,"x_min":146,"x_max":1135,"o":"m 146 0 l 146 958 l 310 958 l 633 150 l 649 150 l 972 958 l 1135 958 l 1135 0 l 1046 0 l 1046 893 l 1031 893 l 676 0 l 603 0 l 249 893 l 232 893 l 232 0 l 146 0 z "},"N":{"ha":978,"x_min":146,"x_max":832,"o":"m 146 0 l 146 958 l 281 958 l 736 196 l 751 196 q 747 300 747 261 q 746 371 746 339 l 746 958 l 832 958 l 832 0 l 753 0 l 242 872 l 226 872 q 231 768 231 807 q 232 697 232 729 l 232 0 l 146 0 z "},"Ń":{"ha":978,"x_min":146,"x_max":832,"o":"m 146 0 l 146 958 l 281 958 l 736 196 l 751 196 q 747 300 747 261 q 746 371 746 339 l 746 958 l 832 958 l 832 0 l 753 0 l 242 872 l 226 872 q 231 768 231 807 q 232 697 232 729 l 232 0 l 146 0 m 422 1031 l 525 1236 l 621 1236 l 486 1031 l 422 1031 z "},"Ň":{"ha":978,"x_min":146,"x_max":832,"o":"m 146 0 l 146 958 l 281 958 l 736 196 l 751 196 q 747 300 747 261 q 746 371 746 339 l 746 958 l 832 958 l 832 0 l 753 0 l 242 872 l 226 872 q 231 768 231 807 q 232 697 232 729 l 232 0 l 146 0 m 697 1236 l 528 1031 l 450 1031 l 281 1236 l 354 1236 l 481 1101 l 497 1101 l 624 1236 l 697 1236 z "},"Ņ":{"ha":978,"x_min":146,"x_max":832,"o":"m 146 0 l 146 958 l 281 958 l 736 196 l 751 196 q 747 300 747 261 q 746 371 746 339 l 746 958 l 832 958 l 832 0 l 753 0 l 242 872 l 226 872 q 231 768 231 807 q 232 697 232 729 l 232 0 l 146 0 m 454 -318 l 513 -187 l 460 -187 l 460 -83 l 568 -83 l 568 -187 l 506 -318 l 454 -318 z "},"Ñ":{"ha":978,"x_min":146,"x_max":832,"o":"m 146 0 l 146 958 l 281 958 l 736 196 l 751 196 q 747 300 747 261 q 746 371 746 339 l 746 958 l 832 958 l 832 0 l 753 0 l 242 872 l 226 872 q 231 768 231 807 q 232 697 232 729 l 232 0 l 146 0 m 575 1042 q 511 1063 533 1042 q 474 1111 489 1083 q 445 1160 460 1139 q 403 1181 431 1181 q 354 1128 354 1181 l 354 1047 l 296 1047 l 296 1131 q 324 1213 296 1183 q 403 1242 353 1242 q 467 1221 444 1242 q 503 1172 489 1200 q 533 1124 518 1144 q 575 1103 549 1103 q 624 1156 624 1103 l 624 1236 l 682 1236 l 682 1153 q 653 1072 682 1101 q 575 1042 625 1042 z "},"Ŋ":{"ha":978,"x_min":146,"x_max":832,"o":"m 146 0 l 146 958 l 281 958 l 736 196 l 751 196 q 747 300 747 261 q 746 371 746 339 l 746 958 l 832 958 l 832 0 l 753 0 l 242 872 l 226 872 q 231 768 231 807 q 232 697 232 729 l 232 0 l 146 0 m 832 158 l 832 -162 q 767 -228 832 -228 l 550 -228 l 550 -157 l 746 -157 l 746 158 l 832 158 z "},"O":{"ha":1003,"x_min":86,"x_max":917,"o":"m 501 -14 q 195 111 304 -14 q 86 479 86 236 q 195 847 86 722 q 501 972 304 972 q 808 847 700 972 q 917 479 917 722 q 808 111 917 236 q 501 -14 700 -14 m 501 65 q 743 155 664 65 q 822 433 822 244 l 822 525 q 743 803 822 714 q 501 893 664 893 q 259 803 338 893 q 181 525 181 714 l 181 433 q 259 155 181 244 q 501 65 338 65 z "},"Ó":{"ha":1003,"x_min":86,"x_max":917,"o":"m 501 -14 q 195 111 304 -14 q 86 479 86 236 q 195 847 86 722 q 501 972 304 972 q 808 847 700 972 q 917 479 917 722 q 808 111 917 236 q 501 -14 700 -14 m 501 65 q 743 155 664 65 q 822 433 822 244 l 822 525 q 743 803 822 714 q 501 893 664 893 q 259 803 338 893 q 181 525 181 714 l 181 433 q 259 155 181 244 q 501 65 338 65 m 435 1031 l 538 1236 l 633 1236 l 499 1031 l 435 1031 z "},"Ô":{"ha":1003,"x_min":86,"x_max":917,"o":"m 501 -14 q 195 111 304 -14 q 86 479 86 236 q 195 847 86 722 q 501 972 304 972 q 808 847 700 972 q 917 479 917 722 q 808 111 917 236 q 501 -14 700 -14 m 501 65 q 743 155 664 65 q 822 433 822 244 l 822 525 q 743 803 822 714 q 501 893 664 893 q 259 803 338 893 q 181 525 181 714 l 181 433 q 259 155 181 244 q 501 65 338 65 m 293 1031 l 463 1236 l 540 1236 l 710 1031 l 636 1031 l 510 1167 l 493 1167 l 367 1031 l 293 1031 z "},"Ö":{"ha":1003,"x_min":86,"x_max":917,"o":"m 501 -14 q 195 111 304 -14 q 86 479 86 236 q 195 847 86 722 q 501 972 304 972 q 808 847 700 972 q 917 479 917 722 q 808 111 917 236 q 501 -14 700 -14 m 501 65 q 743 155 664 65 q 822 433 822 244 l 822 525 q 743 803 822 714 q 501 893 664 893 q 259 803 338 893 q 181 525 181 714 l 181 433 q 259 155 181 244 q 501 65 338 65 m 307 1088 l 307 1192 l 419 1192 l 419 1088 l 307 1088 m 583 1088 l 583 1192 l 696 1192 l 696 1088 l 583 1088 z "},"Ò":{"ha":1003,"x_min":86,"x_max":917,"o":"m 501 -14 q 195 111 304 -14 q 86 479 86 236 q 195 847 86 722 q 501 972 304 972 q 808 847 700 972 q 917 479 917 722 q 808 111 917 236 q 501 -14 700 -14 m 501 65 q 743 155 664 65 q 822 433 822 244 l 822 525 q 743 803 822 714 q 501 893 664 893 q 259 803 338 893 q 181 525 181 714 l 181 433 q 259 155 181 244 q 501 65 338 65 m 493 1031 l 358 1236 l 454 1236 l 557 1031 l 493 1031 z "},"Ő":{"ha":1003,"x_min":86,"x_max":917,"o":"m 501 -14 q 195 111 304 -14 q 86 479 86 236 q 195 847 86 722 q 501 972 304 972 q 808 847 700 972 q 917 479 917 722 q 808 111 917 236 q 501 -14 700 -14 m 501 65 q 743 155 664 65 q 822 433 822 244 l 822 525 q 743 803 822 714 q 501 893 664 893 q 259 803 338 893 q 181 525 181 714 l 181 433 q 259 155 181 244 q 501 65 338 65 m 332 1031 l 435 1236 l 531 1236 l 396 1031 l 332 1031 m 538 1031 l 640 1236 l 736 1236 l 601 1031 l 538 1031 z "},"Ō":{"ha":1003,"x_min":86,"x_max":917,"o":"m 501 -14 q 195 111 304 -14 q 86 479 86 236 q 195 847 86 722 q 501 972 304 972 q 808 847 700 972 q 917 479 917 722 q 808 111 917 236 q 501 -14 700 -14 m 501 65 q 743 155 664 65 q 822 433 822 244 l 822 525 q 743 803 822 714 q 501 893 664 893 q 259 803 338 893 q 181 525 181 714 l 181 433 q 259 155 181 244 q 501 65 338 65 m 307 1099 l 307 1165 l 696 1165 l 696 1099 l 307 1099 z "},"Ø":{"ha":1013,"x_min":68,"x_max":944,"o":"m 507 -14 q 201 111 310 -14 q 92 479 92 236 q 201 847 92 722 q 507 972 310 972 q 814 847 706 972 q 922 479 922 722 q 814 111 922 236 q 507 -14 706 -14 m 507 65 q 749 155 669 65 q 828 433 828 244 l 828 525 q 749 803 828 714 q 507 893 669 893 q 265 803 343 893 q 186 525 186 714 l 186 433 q 265 155 186 244 q 507 65 343 65 m 68 -42 l 200 135 l 204 135 l 749 867 l 753 867 l 856 1000 l 944 1000 l 814 824 l 810 824 l 265 92 l 261 92 l 158 -42 l 68 -42 z "},"Õ":{"ha":1003,"x_min":86,"x_max":917,"o":"m 501 -14 q 195 111 304 -14 q 86 479 86 236 q 195 847 86 722 q 501 972 304 972 q 808 847 700 972 q 917 479 917 722 q 808 111 917 236 q 501 -14 700 -14 m 501 65 q 743 155 664 65 q 822 433 822 244 l 822 525 q 743 803 822 714 q 501 893 664 893 q 259 803 338 893 q 181 525 181 714 l 181 433 q 259 155 181 244 q 501 65 338 65 m 588 1042 q 524 1063 546 1042 q 487 1111 501 1083 q 458 1160 472 1139 q 415 1181 443 1181 q 367 1128 367 1181 l 367 1047 l 308 1047 l 308 1131 q 337 1213 308 1183 q 415 1242 365 1242 q 479 1221 457 1242 q 516 1172 501 1200 q 546 1124 531 1144 q 588 1103 561 1103 q 636 1156 636 1103 l 636 1236 l 694 1236 l 694 1153 q 666 1072 694 1101 q 588 1042 638 1042 z "},"Œ":{"ha":1418,"x_min":89,"x_max":1349,"o":"m 492 0 q 190 116 292 0 q 89 479 89 232 q 190 842 89 726 q 492 958 292 958 l 794 958 l 794 879 l 500 879 q 262 797 340 879 q 183 525 183 714 l 183 433 q 262 162 183 244 q 500 79 340 79 l 794 79 l 794 0 l 492 0 m 719 0 l 719 958 l 1343 958 l 1343 879 l 808 879 l 808 528 l 1238 528 l 1238 450 l 808 450 l 808 79 l 1349 79 l 1349 0 l 719 0 z "},"P":{"ha":875,"x_min":147,"x_max":808,"o":"m 147 0 l 147 958 l 544 958 q 738 885 668 958 q 808 679 808 811 q 738 478 808 551 q 544 404 668 404 l 236 404 l 236 0 l 147 0 m 536 481 q 717 664 717 481 l 717 696 q 536 879 717 879 l 236 879 l 236 481 l 536 481 z "},"Þ":{"ha":889,"x_min":149,"x_max":810,"o":"m 149 0 l 149 958 l 238 958 l 238 0 l 149 0 m 193 213 l 193 289 l 538 289 q 717 472 717 289 l 717 506 q 538 689 717 689 l 193 689 l 193 765 l 546 765 q 740 692 669 765 q 810 489 810 619 q 740 287 810 361 q 546 213 669 213 l 193 213 z "},"Q":{"ha":1003,"x_min":86,"x_max":917,"o":"m 501 -14 q 195 111 304 -14 q 86 479 86 236 q 195 847 86 722 q 501 972 304 972 q 808 847 700 972 q 917 479 917 722 q 808 111 917 236 q 501 -14 700 -14 m 501 65 q 743 155 664 65 q 822 433 822 244 l 822 525 q 743 803 822 714 q 501 893 664 893 q 259 803 338 893 q 181 525 181 714 l 181 433 q 259 155 181 244 q 501 65 338 65 m 740 -100 l 435 421 l 519 421 l 825 -100 l 740 -100 z "},"R":{"ha":901,"x_min":150,"x_max":831,"o":"m 150 0 l 150 958 l 557 958 q 743 888 676 958 q 810 693 810 817 q 742 502 810 572 q 558 432 675 432 l 239 432 l 239 0 l 150 0 m 729 0 l 424 493 l 524 493 l 831 0 l 729 0 m 549 508 q 718 681 718 508 l 718 707 q 549 879 718 879 l 239 879 l 239 508 l 549 508 z "},"Ŕ":{"ha":901,"x_min":150,"x_max":831,"o":"m 150 0 l 150 958 l 557 958 q 743 888 676 958 q 810 693 810 817 q 742 502 810 572 q 558 432 675 432 l 239 432 l 239 0 l 150 0 m 729 0 l 424 493 l 524 493 l 831 0 l 729 0 m 549 508 q 718 681 718 508 l 718 707 q 549 879 718 879 l 239 879 l 239 508 l 549 508 m 389 1031 l 492 1236 l 588 1236 l 453 1031 l 389 1031 z "},"Ř":{"ha":901,"x_min":150,"x_max":831,"o":"m 150 0 l 150 958 l 557 958 q 743 888 676 958 q 810 693 810 817 q 742 502 810 572 q 558 432 675 432 l 239 432 l 239 0 l 150 0 m 729 0 l 424 493 l 524 493 l 831 0 l 729 0 m 549 508 q 718 681 718 508 l 718 707 q 549 879 718 879 l 239 879 l 239 508 l 549 508 m 664 1236 l 494 1031 l 417 1031 l 247 1236 l 321 1236 l 447 1101 l 464 1101 l 590 1236 l 664 1236 z "},"Ŗ":{"ha":901,"x_min":150,"x_max":831,"o":"m 150 0 l 150 958 l 557 958 q 743 888 676 958 q 810 693 810 817 q 742 502 810 572 q 558 432 675 432 l 239 432 l 239 0 l 150 0 m 729 0 l 424 493 l 524 493 l 831 0 l 729 0 m 549 508 q 718 681 718 508 l 718 707 q 549 879 718 879 l 239 879 l 239 508 l 549 508 m 415 -318 l 474 -187 l 421 -187 l 421 -83 l 529 -83 l 529 -187 l 467 -318 l 415 -318 z "},"S":{"ha":899,"x_min":90,"x_max":813,"o":"m 453 -14 q 206 55 294 -14 q 90 276 117 124 l 183 276 l 183 276 q 249 126 183 186 q 453 65 314 65 q 651 113 581 65 q 722 250 722 161 l 722 258 q 679 360 722 324 q 533 418 636 397 l 332 457 q 149 540 208 483 q 90 697 90 597 q 183 900 90 828 q 446 972 276 972 q 690 903 603 972 q 806 682 778 835 l 713 682 l 713 682 q 649 832 713 771 q 446 893 586 893 q 251 845 321 893 q 181 708 181 797 l 181 700 q 224 598 181 636 q 367 540 267 560 l 568 501 q 753 418 694 475 q 813 261 813 361 q 719 58 813 131 q 453 -14 625 -14 z "},"Ś":{"ha":899,"x_min":90,"x_max":813,"o":"m 453 -14 q 206 55 294 -14 q 90 276 117 124 l 183 276 l 183 276 q 249 126 183 186 q 453 65 314 65 q 651 113 581 65 q 722 250 722 161 l 722 258 q 679 360 722 324 q 533 418 636 397 l 332 457 q 149 540 208 483 q 90 697 90 597 q 183 900 90 828 q 446 972 276 972 q 690 903 603 972 q 806 682 778 835 l 713 682 l 713 682 q 649 832 713 771 q 446 893 586 893 q 251 845 321 893 q 181 708 181 797 l 181 700 q 224 598 181 636 q 367 540 267 560 l 568 501 q 753 418 694 475 q 813 261 813 361 q 719 58 813 131 q 453 -14 625 -14 m 374 1031 l 476 1236 l 572 1236 l 438 1031 l 374 1031 z "},"Š":{"ha":899,"x_min":90,"x_max":813,"o":"m 453 -14 q 206 55 294 -14 q 90 276 117 124 l 183 276 l 183 276 q 249 126 183 186 q 453 65 314 65 q 651 113 581 65 q 722 250 722 161 l 722 258 q 679 360 722 324 q 533 418 636 397 l 332 457 q 149 540 208 483 q 90 697 90 597 q 183 900 90 828 q 446 972 276 972 q 690 903 603 972 q 806 682 778 835 l 713 682 l 713 682 q 649 832 713 771 q 446 893 586 893 q 251 845 321 893 q 181 708 181 797 l 181 700 q 224 598 181 636 q 367 540 267 560 l 568 501 q 753 418 694 475 q 813 261 813 361 q 719 58 813 131 q 453 -14 625 -14 m 649 1236 l 479 1031 l 401 1031 l 232 1236 l 306 1236 l 432 1101 l 449 1101 l 575 1236 l 649 1236 z "},"Ş":{"ha":899,"x_min":90,"x_max":813,"o":"m 453 -14 q 206 55 294 -14 q 90 276 117 124 l 183 276 l 183 276 q 249 126 183 186 q 453 65 314 65 q 651 113 581 65 q 722 250 722 161 l 722 258 q 679 360 722 324 q 533 418 636 397 l 332 457 q 149 540 208 483 q 90 697 90 597 q 183 900 90 828 q 446 972 276 972 q 690 903 603 972 q 806 682 778 835 l 713 682 l 713 682 q 649 832 713 771 q 446 893 586 893 q 251 845 321 893 q 181 708 181 797 l 181 700 q 224 598 181 636 q 367 540 267 560 l 568 501 q 753 418 694 475 q 813 261 813 361 q 719 58 813 131 q 453 -14 625 -14 m 349 -242 l 349 -182 l 514 -182 q 557 -147 557 -182 q 514 -112 557 -112 l 419 -112 l 419 14 l 486 14 l 486 -83 l 461 -61 l 518 -61 q 628 -150 628 -61 q 518 -242 628 -242 l 349 -242 z "},"Ș":{"ha":899,"x_min":90,"x_max":813,"o":"m 453 -14 q 206 55 294 -14 q 90 276 117 124 l 183 276 l 183 276 q 249 126 183 186 q 453 65 314 65 q 651 113 581 65 q 722 250 722 161 l 722 258 q 679 360 722 324 q 533 418 636 397 l 332 457 q 149 540 208 483 q 90 697 90 597 q 183 900 90 828 q 446 972 276 972 q 690 903 603 972 q 806 682 778 835 l 713 682 l 713 682 q 649 832 713 771 q 446 893 586 893 q 251 845 321 893 q 181 708 181 797 l 181 700 q 224 598 181 636 q 367 540 267 560 l 568 501 q 753 418 694 475 q 813 261 813 361 q 719 58 813 131 q 453 -14 625 -14 m 393 -318 l 451 -187 l 399 -187 l 399 -83 l 507 -83 l 507 -187 l 444 -318 l 393 -318 z "},"ẞ":{"ha":929,"x_min":150,"x_max":844,"o":"m 150 0 l 150 958 l 817 958 l 817 885 l 525 513 l 489 543 l 568 543 q 772 472 699 543 q 844 272 844 400 q 770 72 844 143 q 564 0 696 0 l 371 0 l 371 74 l 556 74 q 753 257 753 74 l 753 290 q 556 474 753 474 l 442 474 l 442 544 l 706 885 l 239 885 l 239 0 l 150 0 z "},"T":{"ha":821,"x_min":54,"x_max":767,"o":"m 365 0 l 365 879 l 54 879 l 54 958 l 767 958 l 767 879 l 454 879 l 454 0 l 365 0 z "},"Ť":{"ha":821,"x_min":54,"x_max":767,"o":"m 365 0 l 365 879 l 54 879 l 54 958 l 767 958 l 767 879 l 454 879 l 454 0 l 365 0 m 618 1236 l 449 1031 l 371 1031 l 201 1236 l 275 1236 l 401 1101 l 418 1101 l 544 1236 l 618 1236 z "},"Ț":{"ha":821,"x_min":54,"x_max":767,"o":"m 365 0 l 365 879 l 54 879 l 54 958 l 767 958 l 767 879 l 454 879 l 454 0 l 365 0 m 350 -318 l 408 -187 l 356 -187 l 356 -83 l 464 -83 l 464 -187 l 401 -318 l 350 -318 z "},"U":{"ha":978,"x_min":131,"x_max":847,"o":"m 489 -14 q 219 78 307 -14 q 131 351 131 171 l 131 958 l 219 958 l 219 340 q 282 131 219 197 q 489 65 344 65 q 695 131 633 65 q 757 340 757 197 l 757 958 l 847 958 l 847 351 q 759 78 847 171 q 489 -14 671 -14 z "},"Ú":{"ha":978,"x_min":131,"x_max":847,"o":"m 489 -14 q 219 78 307 -14 q 131 351 131 171 l 131 958 l 219 958 l 219 340 q 282 131 219 197 q 489 65 344 65 q 695 131 633 65 q 757 340 757 197 l 757 958 l 847 958 l 847 351 q 759 78 847 171 q 489 -14 671 -14 m 419 1031 l 522 1236 l 618 1236 l 483 1031 l 419 1031 z "},"Ŭ":{"ha":978,"x_min":131,"x_max":847,"o":"m 489 -14 q 219 78 307 -14 q 131 351 131 171 l 131 958 l 219 958 l 219 340 q 282 131 219 197 q 489 65 344 65 q 695 131 633 65 q 757 340 757 197 l 757 958 l 847 958 l 847 351 q 759 78 847 171 q 489 -14 671 -14 m 486 1025 q 347 1074 397 1025 q 288 1236 296 1124 l 361 1236 l 361 1236 q 394 1123 361 1157 q 486 1089 426 1089 q 578 1123 546 1089 q 611 1236 611 1157 l 611 1236 l 685 1236 q 626 1074 676 1124 q 486 1025 575 1025 z "},"Û":{"ha":978,"x_min":131,"x_max":847,"o":"m 489 -14 q 219 78 307 -14 q 131 351 131 171 l 131 958 l 219 958 l 219 340 q 282 131 219 197 q 489 65 344 65 q 695 131 633 65 q 757 340 757 197 l 757 958 l 847 958 l 847 351 q 759 78 847 171 q 489 -14 671 -14 m 278 1031 l 447 1236 l 525 1236 l 694 1031 l 621 1031 l 494 1167 l 478 1167 l 351 1031 l 278 1031 z "},"Ü":{"ha":978,"x_min":131,"x_max":847,"o":"m 489 -14 q 219 78 307 -14 q 131 351 131 171 l 131 958 l 219 958 l 219 340 q 282 131 219 197 q 489 65 344 65 q 695 131 633 65 q 757 340 757 197 l 757 958 l 847 958 l 847 351 q 759 78 847 171 q 489 -14 671 -14 m 292 1088 l 292 1192 l 404 1192 l 404 1088 l 292 1088 m 568 1088 l 568 1192 l 681 1192 l 681 1088 l 568 1088 z "},"Ù":{"ha":978,"x_min":131,"x_max":847,"o":"m 489 -14 q 219 78 307 -14 q 131 351 131 171 l 131 958 l 219 958 l 219 340 q 282 131 219 197 q 489 65 344 65 q 695 131 633 65 q 757 340 757 197 l 757 958 l 847 958 l 847 351 q 759 78 847 171 q 489 -14 671 -14 m 478 1031 l 343 1236 l 439 1236 l 542 1031 l 478 1031 z "},"Ű":{"ha":978,"x_min":131,"x_max":847,"o":"m 489 -14 q 219 78 307 -14 q 131 351 131 171 l 131 958 l 219 958 l 219 340 q 282 131 219 197 q 489 65 344 65 q 695 131 633 65 q 757 340 757 197 l 757 958 l 847 958 l 847 351 q 759 78 847 171 q 489 -14 671 -14 m 317 1031 l 419 1236 l 515 1236 l 381 1031 l 317 1031 m 522 1031 l 625 1236 l 721 1236 l 586 1031 l 522 1031 z "},"Ū":{"ha":978,"x_min":131,"x_max":847,"o":"m 489 -14 q 219 78 307 -14 q 131 351 131 171 l 131 958 l 219 958 l 219 340 q 282 131 219 197 q 489 65 344 65 q 695 131 633 65 q 757 340 757 197 l 757 958 l 847 958 l 847 351 q 759 78 847 171 q 489 -14 671 -14 m 292 1099 l 292 1165 l 681 1165 l 681 1099 l 292 1099 z "},"Ų":{"ha":978,"x_min":131,"x_max":847,"o":"m 489 -14 q 219 78 307 -14 q 131 351 131 171 l 131 958 l 219 958 l 219 340 q 282 131 219 197 q 489 65 344 65 q 695 131 633 65 q 757 340 757 197 l 757 958 l 847 958 l 847 351 q 759 78 847 171 q 489 -14 671 -14 m 493 -222 q 394 -144 394 -222 q 419 -73 394 -108 q 499 -15 443 -37 l 499 18 l 614 0 q 492 -72 525 -39 q 460 -128 460 -104 q 503 -162 460 -162 l 633 -162 l 633 -222 l 493 -222 z "},"Ů":{"ha":978,"x_min":131,"x_max":847,"o":"m 489 -14 q 219 78 307 -14 q 131 351 131 171 l 131 958 l 219 958 l 219 340 q 282 131 219 197 q 489 65 344 65 q 695 131 633 65 q 757 340 757 197 l 757 958 l 847 958 l 847 351 q 759 78 847 171 q 489 -14 671 -14 m 486 1019 q 385 1056 424 1019 q 346 1153 346 1093 q 385 1250 346 1214 q 486 1286 424 1286 q 588 1250 550 1286 q 626 1153 626 1214 q 588 1056 626 1093 q 486 1019 550 1019 m 486 1072 q 563 1151 563 1072 l 563 1154 q 486 1233 563 1233 q 410 1154 410 1233 l 410 1151 q 486 1072 410 1072 z "},"V":{"ha":919,"x_min":43,"x_max":875,"o":"m 408 0 l 43 958 l 136 958 l 453 113 l 468 113 l 785 958 l 875 958 l 510 0 l 408 0 z "},"W":{"ha":1343,"x_min":50,"x_max":1293,"o":"m 329 0 l 50 958 l 140 958 l 375 113 l 390 113 l 636 958 l 710 958 l 956 113 l 971 113 l 1206 958 l 1293 958 l 1014 0 l 914 0 l 681 801 l 665 801 l 429 0 l 329 0 z "},"Ẃ":{"ha":1343,"x_min":50,"x_max":1293,"o":"m 329 0 l 50 958 l 140 958 l 375 113 l 390 113 l 636 958 l 710 958 l 956 113 l 971 113 l 1206 958 l 1293 958 l 1014 0 l 914 0 l 681 801 l 665 801 l 429 0 l 329 0 m 606 1031 l 708 1236 l 804 1236 l 669 1031 l 606 1031 z "},"Ŵ":{"ha":1343,"x_min":50,"x_max":1293,"o":"m 329 0 l 50 958 l 140 958 l 375 113 l 390 113 l 636 958 l 710 958 l 956 113 l 971 113 l 1206 958 l 1293 958 l 1014 0 l 914 0 l 681 801 l 665 801 l 429 0 l 329 0 m 464 1031 l 633 1236 l 711 1236 l 881 1031 l 807 1031 l 681 1167 l 664 1167 l 538 1031 l 464 1031 z "},"Ẅ":{"ha":1343,"x_min":50,"x_max":1293,"o":"m 329 0 l 50 958 l 140 958 l 375 113 l 390 113 l 636 958 l 710 958 l 956 113 l 971 113 l 1206 958 l 1293 958 l 1014 0 l 914 0 l 681 801 l 665 801 l 429 0 l 329 0 m 478 1088 l 478 1192 l 590 1192 l 590 1088 l 478 1088 m 754 1088 l 754 1192 l 867 1192 l 867 1088 l 754 1088 z "},"Ẁ":{"ha":1343,"x_min":50,"x_max":1293,"o":"m 329 0 l 50 958 l 140 958 l 375 113 l 390 113 l 636 958 l 710 958 l 956 113 l 971 113 l 1206 958 l 1293 958 l 1014 0 l 914 0 l 681 801 l 665 801 l 429 0 l 329 0 m 664 1031 l 529 1236 l 625 1236 l 728 1031 l 664 1031 z "},"X":{"ha":864,"x_min":47,"x_max":817,"o":"m 47 0 l 383 522 l 382 469 l 57 958 l 160 958 l 425 546 l 440 546 l 707 958 l 807 958 l 482 469 l 481 522 l 817 0 l 714 0 l 438 438 l 422 438 l 147 0 l 47 0 z "},"Y":{"ha":893,"x_min":39,"x_max":854,"o":"m 403 0 l 403 404 l 39 958 l 139 958 l 440 496 l 456 496 l 757 958 l 854 958 l 492 404 l 492 0 l 403 0 z "},"Ý":{"ha":893,"x_min":39,"x_max":854,"o":"m 403 0 l 403 404 l 39 958 l 139 958 l 440 496 l 456 496 l 757 958 l 854 958 l 492 404 l 492 0 l 403 0 m 382 1031 l 485 1236 l 581 1236 l 446 1031 l 382 1031 z "},"Ŷ":{"ha":893,"x_min":39,"x_max":854,"o":"m 403 0 l 403 404 l 39 958 l 139 958 l 440 496 l 456 496 l 757 958 l 854 958 l 492 404 l 492 0 l 403 0 m 240 1031 l 410 1236 l 488 1236 l 657 1031 l 583 1031 l 457 1167 l 440 1167 l 314 1031 l 240 1031 z "},"Ÿ":{"ha":893,"x_min":39,"x_max":854,"o":"m 403 0 l 403 404 l 39 958 l 139 958 l 440 496 l 456 496 l 757 958 l 854 958 l 492 404 l 492 0 l 403 0 m 254 1088 l 254 1192 l 367 1192 l 367 1088 l 254 1088 m 531 1088 l 531 1192 l 643 1192 l 643 1088 l 531 1088 z "},"Ỳ":{"ha":893,"x_min":39,"x_max":854,"o":"m 403 0 l 403 404 l 39 958 l 139 958 l 440 496 l 456 496 l 757 958 l 854 958 l 492 404 l 492 0 l 403 0 m 440 1031 l 306 1236 l 401 1236 l 504 1031 l 440 1031 z "},"Z":{"ha":824,"x_min":67,"x_max":758,"o":"m 67 0 l 67 74 l 643 885 l 71 885 l 71 958 l 754 958 l 754 885 l 176 74 l 758 74 l 758 0 l 67 0 z "},"Ź":{"ha":824,"x_min":67,"x_max":758,"o":"m 67 0 l 67 74 l 643 885 l 71 885 l 71 958 l 754 958 l 754 885 l 176 74 l 758 74 l 758 0 l 67 0 m 346 1031 l 449 1236 l 544 1236 l 410 1031 l 346 1031 z "},"Ž":{"ha":824,"x_min":67,"x_max":758,"o":"m 67 0 l 67 74 l 643 885 l 71 885 l 71 958 l 754 958 l 754 885 l 176 74 l 758 74 l 758 0 l 67 0 m 621 1236 l 451 1031 l 374 1031 l 204 1236 l 278 1236 l 404 1101 l 421 1101 l 547 1236 l 621 1236 z "},"Ż":{"ha":824,"x_min":67,"x_max":758,"o":"m 67 0 l 67 74 l 643 885 l 71 885 l 71 958 l 754 958 l 754 885 l 176 74 l 758 74 l 758 0 l 67 0 m 358 1088 l 358 1192 l 467 1192 l 467 1088 l 358 1088 z "},"a":{"ha":790,"x_min":79,"x_max":668,"o":"m 331 -14 q 146 40 213 -14 q 79 190 79 93 q 149 341 79 286 q 350 410 218 396 l 582 432 l 582 367 l 372 346 q 218 302 268 336 q 168 203 168 268 l 168 201 q 216 98 168 133 q 358 63 264 63 q 582 260 582 63 l 582 385 l 582 401 l 582 471 q 536 629 582 579 q 389 679 490 679 q 275 658 318 679 q 213 605 232 636 q 193 546 193 574 l 193 546 l 103 546 q 390 756 154 756 q 598 685 528 756 q 668 478 668 615 l 668 0 l 592 0 l 592 104 l 576 104 q 480 16 539 46 q 331 -14 421 -14 z "},"á":{"ha":790,"x_min":79,"x_max":668,"o":"m 331 -14 q 146 40 213 -14 q 79 190 79 93 q 149 341 79 286 q 350 410 218 396 l 582 432 l 582 367 l 372 346 q 218 302 268 336 q 168 203 168 268 l 168 201 q 216 98 168 133 q 358 63 264 63 q 582 260 582 63 l 582 385 l 582 401 l 582 471 q 536 629 582 579 q 389 679 490 679 q 275 658 318 679 q 213 605 232 636 q 193 546 193 574 l 193 546 l 103 546 q 390 756 154 756 q 598 685 528 756 q 668 478 668 615 l 668 0 l 592 0 l 592 104 l 576 104 q 480 16 539 46 q 331 -14 421 -14 m 303 825 l 406 1031 l 501 1031 l 367 825 l 303 825 z "},"ă":{"ha":790,"x_min":79,"x_max":668,"o":"m 331 -14 q 146 40 213 -14 q 79 190 79 93 q 149 341 79 286 q 350 410 218 396 l 582 432 l 582 367 l 372 346 q 218 302 268 336 q 168 203 168 268 l 168 201 q 216 98 168 133 q 358 63 264 63 q 582 260 582 63 l 582 385 l 582 401 l 582 471 q 536 629 582 579 q 389 679 490 679 q 275 658 318 679 q 213 605 232 636 q 193 546 193 574 l 193 546 l 103 546 q 390 756 154 756 q 598 685 528 756 q 668 478 668 615 l 668 0 l 592 0 l 592 104 l 576 104 q 480 16 539 46 q 331 -14 421 -14 m 369 819 q 230 869 281 819 q 171 1031 179 918 l 244 1031 l 244 1031 q 277 917 244 951 q 369 883 310 883 q 462 917 429 883 q 494 1031 494 951 l 494 1031 l 568 1031 q 509 869 560 918 q 369 819 458 819 z "},"â":{"ha":790,"x_min":79,"x_max":668,"o":"m 331 -14 q 146 40 213 -14 q 79 190 79 93 q 149 341 79 286 q 350 410 218 396 l 582 432 l 582 367 l 372 346 q 218 302 268 336 q 168 203 168 268 l 168 201 q 216 98 168 133 q 358 63 264 63 q 582 260 582 63 l 582 385 l 582 401 l 582 471 q 536 629 582 579 q 389 679 490 679 q 275 658 318 679 q 213 605 232 636 q 193 546 193 574 l 193 546 l 103 546 q 390 756 154 756 q 598 685 528 756 q 668 478 668 615 l 668 0 l 592 0 l 592 104 l 576 104 q 480 16 539 46 q 331 -14 421 -14 m 161 825 l 331 1031 l 408 1031 l 578 825 l 504 825 l 378 961 l 361 961 l 235 825 l 161 825 z "},"ä":{"ha":790,"x_min":79,"x_max":668,"o":"m 331 -14 q 146 40 213 -14 q 79 190 79 93 q 149 341 79 286 q 350 410 218 396 l 582 432 l 582 367 l 372 346 q 218 302 268 336 q 168 203 168 268 l 168 201 q 216 98 168 133 q 358 63 264 63 q 582 260 582 63 l 582 385 l 582 401 l 582 471 q 536 629 582 579 q 389 679 490 679 q 275 658 318 679 q 213 605 232 636 q 193 546 193 574 l 193 546 l 103 546 q 390 756 154 756 q 598 685 528 756 q 668 478 668 615 l 668 0 l 592 0 l 592 104 l 576 104 q 480 16 539 46 q 331 -14 421 -14 m 175 882 l 175 986 l 288 986 l 288 882 l 175 882 m 451 882 l 451 986 l 564 986 l 564 882 l 451 882 z "},"à":{"ha":790,"x_min":79,"x_max":668,"o":"m 331 -14 q 146 40 213 -14 q 79 190 79 93 q 149 341 79 286 q 350 410 218 396 l 582 432 l 582 367 l 372 346 q 218 302 268 336 q 168 203 168 268 l 168 201 q 216 98 168 133 q 358 63 264 63 q 582 260 582 63 l 582 385 l 582 401 l 582 471 q 536 629 582 579 q 389 679 490 679 q 275 658 318 679 q 213 605 232 636 q 193 546 193 574 l 193 546 l 103 546 q 390 756 154 756 q 598 685 528 756 q 668 478 668 615 l 668 0 l 592 0 l 592 104 l 576 104 q 480 16 539 46 q 331 -14 421 -14 m 361 825 l 226 1031 l 322 1031 l 425 825 l 361 825 z "},"ā":{"ha":790,"x_min":79,"x_max":668,"o":"m 331 -14 q 146 40 213 -14 q 79 190 79 93 q 149 341 79 286 q 350 410 218 396 l 582 432 l 582 367 l 372 346 q 218 302 268 336 q 168 203 168 268 l 168 201 q 216 98 168 133 q 358 63 264 63 q 582 260 582 63 l 582 385 l 582 401 l 582 471 q 536 629 582 579 q 389 679 490 679 q 275 658 318 679 q 213 605 232 636 q 193 546 193 574 l 193 546 l 103 546 q 390 756 154 756 q 598 685 528 756 q 668 478 668 615 l 668 0 l 592 0 l 592 104 l 576 104 q 480 16 539 46 q 331 -14 421 -14 m 175 893 l 175 960 l 564 960 l 564 893 l 175 893 z "},"ą":{"ha":790,"x_min":79,"x_max":708,"o":"m 568 -222 q 469 -144 469 -222 q 501 -73 469 -108 q 592 -15 532 -37 l 592 18 l 668 0 q 565 -72 596 -39 q 535 -128 535 -104 q 578 -162 535 -162 l 708 -162 l 708 -222 l 568 -222 m 331 -14 q 146 40 213 -14 q 79 190 79 93 q 149 341 79 286 q 350 410 218 396 l 582 432 l 582 367 l 372 346 q 218 302 268 336 q 168 203 168 268 l 168 201 q 216 98 168 133 q 358 63 264 63 q 582 260 582 63 l 582 385 l 582 401 l 582 471 q 536 629 582 579 q 389 679 490 679 q 275 658 318 679 q 213 605 232 636 q 193 546 193 574 l 193 546 l 103 546 q 390 756 154 756 q 598 685 528 756 q 668 478 668 615 l 668 0 l 592 0 l 592 104 l 576 104 q 480 16 539 46 q 331 -14 421 -14 z "},"å":{"ha":790,"x_min":79,"x_max":668,"o":"m 331 -14 q 146 40 213 -14 q 79 190 79 93 q 149 341 79 286 q 350 410 218 396 l 582 432 l 582 367 l 372 346 q 218 302 268 336 q 168 203 168 268 l 168 201 q 216 98 168 133 q 358 63 264 63 q 582 260 582 63 l 582 385 l 582 401 l 582 471 q 536 629 582 579 q 389 679 490 679 q 275 658 318 679 q 213 605 232 636 q 193 546 193 574 l 193 546 l 103 546 q 390 756 154 756 q 598 685 528 756 q 668 478 668 615 l 668 0 l 592 0 l 592 104 l 576 104 q 480 16 539 46 q 331 -14 421 -14 m 369 814 q 268 851 307 814 q 229 947 229 888 q 268 1044 229 1008 q 369 1081 307 1081 q 472 1044 433 1081 q 510 947 510 1008 q 472 851 510 888 q 369 814 433 814 m 369 867 q 446 946 446 867 l 446 949 q 369 1028 446 1028 q 293 949 293 1028 l 293 946 q 369 867 293 867 z "},"ã":{"ha":790,"x_min":79,"x_max":668,"o":"m 331 -14 q 146 40 213 -14 q 79 190 79 93 q 149 341 79 286 q 350 410 218 396 l 582 432 l 582 367 l 372 346 q 218 302 268 336 q 168 203 168 268 l 168 201 q 216 98 168 133 q 358 63 264 63 q 582 260 582 63 l 582 385 l 582 401 l 582 471 q 536 629 582 579 q 389 679 490 679 q 275 658 318 679 q 213 605 232 636 q 193 546 193 574 l 193 546 l 103 546 q 390 756 154 756 q 598 685 528 756 q 668 478 668 615 l 668 0 l 592 0 l 592 104 l 576 104 q 480 16 539 46 q 331 -14 421 -14 m 456 825 q 392 846 414 825 q 355 894 369 867 q 326 943 340 922 q 283 964 311 964 q 235 911 235 964 l 235 831 l 176 831 l 176 914 q 205 996 176 967 q 283 1025 233 1025 q 347 1004 325 1025 q 384 956 369 983 q 414 907 399 928 q 456 886 429 886 q 504 939 504 886 l 504 1019 l 563 1019 l 563 936 q 534 855 563 885 q 456 825 506 825 z "},"æ":{"ha":1299,"x_min":81,"x_max":1221,"o":"m 332 -14 q 147 40 214 -14 q 81 190 81 93 q 148 341 81 286 q 342 410 215 396 l 574 432 l 574 367 l 364 346 q 217 302 265 336 q 169 201 169 268 l 169 201 q 216 98 169 133 q 354 63 263 63 q 574 260 574 63 l 574 385 l 574 401 l 574 471 q 528 629 574 579 q 385 679 483 679 q 274 658 315 679 q 213 605 232 636 q 194 546 194 574 l 194 546 l 104 546 q 388 756 156 756 q 544 722 483 756 q 624 629 604 688 l 639 629 q 735 721 667 686 q 900 756 804 756 q 1135 663 1050 756 q 1221 399 1221 571 l 1221 361 l 629 361 l 629 428 l 1179 428 l 1140 379 l 1140 394 q 1081 611 1140 542 q 900 681 1022 681 q 719 611 778 681 q 660 394 660 542 l 660 349 q 719 132 660 201 q 900 63 778 63 q 1027 88 982 63 q 1091 146 1072 114 q 1110 196 1110 178 l 1110 196 l 1200 196 q 1092 40 1168 93 q 900 -14 1015 -14 q 731 25 803 -14 q 624 138 660 64 l 608 138 q 492 20 563 54 q 332 -14 422 -14 z "},"b":{"ha":863,"x_min":131,"x_max":782,"o":"m 471 -14 q 328 20 389 -14 q 224 122 268 54 l 208 122 l 208 0 l 131 0 l 131 1003 l 217 1003 l 217 790 q 216 721 217 758 q 211 626 215 683 l 226 626 q 329 723 269 690 q 471 756 389 756 q 700 656 618 756 q 782 371 782 556 q 745 163 782 249 q 639 31 708 76 q 471 -14 569 -14 m 454 63 q 633 132 575 63 q 690 347 690 201 l 690 394 q 633 610 690 540 q 454 679 575 679 q 274 610 332 679 q 217 394 217 540 l 217 347 q 274 132 217 201 q 454 63 332 63 z "},"c":{"ha":811,"x_min":81,"x_max":731,"o":"m 413 -14 q 169 85 257 -14 q 81 371 81 185 q 169 656 81 557 q 413 756 257 756 q 623 690 540 756 q 729 499 706 624 l 642 499 l 642 499 q 618 579 642 538 q 544 650 594 621 q 413 679 494 679 q 233 610 293 679 q 174 394 174 540 l 174 347 q 233 132 174 201 q 413 63 293 63 q 544 92 494 63 q 618 165 594 121 q 642 254 642 210 l 642 254 l 731 254 q 626 56 710 125 q 413 -14 543 -14 z "},"ć":{"ha":811,"x_min":81,"x_max":731,"o":"m 413 -14 q 169 85 257 -14 q 81 371 81 185 q 169 656 81 557 q 413 756 257 756 q 623 690 540 756 q 729 499 706 624 l 642 499 l 642 499 q 618 579 642 538 q 544 650 594 621 q 413 679 494 679 q 233 610 293 679 q 174 394 174 540 l 174 347 q 233 132 174 201 q 413 63 293 63 q 544 92 494 63 q 618 165 594 121 q 642 254 642 210 l 642 254 l 731 254 q 626 56 710 125 q 413 -14 543 -14 m 346 825 l 449 1031 l 544 1031 l 410 825 l 346 825 z "},"č":{"ha":811,"x_min":81,"x_max":731,"o":"m 413 -14 q 169 85 257 -14 q 81 371 81 185 q 169 656 81 557 q 413 756 257 756 q 623 690 540 756 q 729 499 706 624 l 642 499 l 642 499 q 618 579 642 538 q 544 650 594 621 q 413 679 494 679 q 233 610 293 679 q 174 394 174 540 l 174 347 q 233 132 174 201 q 413 63 293 63 q 544 92 494 63 q 618 165 594 121 q 642 254 642 210 l 642 254 l 731 254 q 626 56 710 125 q 413 -14 543 -14 m 621 1031 l 451 825 l 374 825 l 204 1031 l 278 1031 l 404 896 l 421 896 l 547 1031 l 621 1031 z "},"ç":{"ha":811,"x_min":81,"x_max":731,"o":"m 413 -14 q 169 85 257 -14 q 81 371 81 185 q 169 656 81 557 q 413 756 257 756 q 623 690 540 756 q 729 499 706 624 l 642 499 l 642 499 q 618 579 642 538 q 544 650 594 621 q 413 679 494 679 q 233 610 293 679 q 174 394 174 540 l 174 347 q 233 132 174 201 q 413 63 293 63 q 544 92 494 63 q 618 165 594 121 q 642 254 642 210 l 642 254 l 731 254 q 626 56 710 125 q 413 -14 543 -14 m 308 -242 l 308 -182 l 474 -182 q 517 -147 517 -182 q 474 -112 517 -112 l 379 -112 l 379 14 l 446 14 l 446 -83 l 421 -61 l 478 -61 q 588 -150 588 -61 q 478 -242 588 -242 l 308 -242 z "},"ċ":{"ha":811,"x_min":81,"x_max":731,"o":"m 413 -14 q 169 85 257 -14 q 81 371 81 185 q 169 656 81 557 q 413 756 257 756 q 623 690 540 756 q 729 499 706 624 l 642 499 l 642 499 q 618 579 642 538 q 544 650 594 621 q 413 679 494 679 q 233 610 293 679 q 174 394 174 540 l 174 347 q 233 132 174 201 q 413 63 293 63 q 544 92 494 63 q 618 165 594 121 q 642 254 642 210 l 642 254 l 731 254 q 626 56 710 125 q 413 -14 543 -14 m 358 882 l 358 986 l 467 986 l 467 882 l 358 882 z "},"d":{"ha":863,"x_min":79,"x_max":732,"o":"m 390 -14 q 224 31 293 -14 q 117 163 154 76 q 79 371 79 249 q 162 656 79 556 q 390 756 244 756 q 533 723 474 756 q 636 626 593 690 l 651 626 q 647 721 647 683 q 646 790 646 758 l 646 1003 l 732 1003 l 732 0 l 654 0 l 654 122 l 639 122 q 535 20 596 54 q 390 -14 474 -14 m 408 63 q 588 132 531 63 q 646 347 646 201 l 646 394 q 588 610 646 540 q 408 679 531 679 q 229 610 286 679 q 172 394 172 540 l 172 347 q 229 132 172 201 q 408 63 286 63 z "},"ď":{"ha":863,"x_min":79,"x_max":904,"o":"m 390 -14 q 224 31 293 -14 q 117 163 154 76 q 79 371 79 249 q 162 656 79 556 q 390 756 244 756 q 533 723 474 756 q 636 626 593 690 l 651 626 q 647 721 647 683 q 646 790 646 758 l 646 1003 l 732 1003 l 732 0 l 654 0 l 654 122 l 639 122 q 535 20 596 54 q 390 -14 474 -14 m 408 63 q 588 132 531 63 q 646 347 646 201 l 646 394 q 588 610 646 540 q 408 679 531 679 q 229 610 286 679 q 172 394 172 540 l 172 347 q 229 132 172 201 q 408 63 286 63 m 826 786 l 826 1003 l 904 1003 l 876 786 l 826 786 z "},"đ":{"ha":863,"x_min":79,"x_max":847,"o":"m 390 -14 q 224 31 293 -14 q 117 163 154 76 q 79 371 79 249 q 162 656 79 556 q 390 756 244 756 q 533 723 474 756 q 636 626 593 690 l 651 626 q 647 721 647 683 q 646 790 646 758 l 646 1008 l 732 1008 l 732 0 l 654 0 l 654 122 l 639 122 q 535 20 596 54 q 390 -14 474 -14 m 408 63 q 588 132 531 63 q 646 347 646 201 l 646 394 q 588 610 646 540 q 408 679 531 679 q 229 610 286 679 q 172 394 172 540 l 172 347 q 229 132 172 201 q 408 63 286 63 m 415 849 l 415 910 l 847 910 l 847 849 l 415 849 z "},"ð":{"ha":832,"x_min":79,"x_max":750,"o":"m 421 -14 q 169 81 260 -14 q 79 343 79 175 q 115 535 79 456 q 219 658 151 615 q 382 700 288 700 q 529 670 467 700 q 617 606 592 640 l 632 606 q 536 781 610 678 q 326 1003 463 885 l 426 1003 q 592 819 518 915 q 708 610 665 722 q 750 358 750 497 q 664 83 750 179 q 421 -14 578 -14 m 421 63 q 602 128 543 63 q 661 329 661 194 l 661 361 q 601 559 661 494 q 417 624 540 624 q 233 559 293 624 q 172 358 172 494 l 172 328 q 233 128 172 193 q 421 63 294 63 m 282 796 l 282 860 l 681 938 l 681 875 l 282 796 z "},"e":{"ha":821,"x_min":81,"x_max":743,"o":"m 418 -14 q 170 86 260 -14 q 81 371 81 186 q 170 656 81 556 q 418 756 260 756 q 657 663 571 756 q 743 399 743 571 l 743 361 l 142 361 l 142 428 l 701 428 l 663 376 l 663 394 q 603 611 663 542 q 418 681 543 681 q 233 611 292 681 q 174 394 174 542 l 174 349 q 233 132 174 201 q 418 63 292 63 q 549 88 501 63 q 615 146 596 114 q 633 196 633 178 l 633 196 l 722 196 q 613 40 690 93 q 418 -14 535 -14 z "},"é":{"ha":821,"x_min":81,"x_max":743,"o":"m 418 -14 q 170 86 260 -14 q 81 371 81 186 q 170 656 81 556 q 418 756 260 756 q 657 663 571 756 q 743 399 743 571 l 743 361 l 142 361 l 142 428 l 701 428 l 663 376 l 663 394 q 603 611 663 542 q 418 681 543 681 q 233 611 292 681 q 174 394 174 542 l 174 349 q 233 132 174 201 q 418 63 292 63 q 549 88 501 63 q 615 146 596 114 q 633 196 633 178 l 633 196 l 722 196 q 613 40 690 93 q 418 -14 535 -14 m 351 825 l 454 1031 l 550 1031 l 415 825 l 351 825 z "},"ě":{"ha":821,"x_min":81,"x_max":743,"o":"m 418 -14 q 170 86 260 -14 q 81 371 81 186 q 170 656 81 556 q 418 756 260 756 q 657 663 571 756 q 743 399 743 571 l 743 361 l 142 361 l 142 428 l 701 428 l 663 376 l 663 394 q 603 611 663 542 q 418 681 543 681 q 233 611 292 681 q 174 394 174 542 l 174 349 q 233 132 174 201 q 418 63 292 63 q 549 88 501 63 q 615 146 596 114 q 633 196 633 178 l 633 196 l 722 196 q 613 40 690 93 q 418 -14 535 -14 m 626 1031 l 457 825 l 379 825 l 210 1031 l 283 1031 l 410 896 l 426 896 l 553 1031 l 626 1031 z "},"ê":{"ha":821,"x_min":81,"x_max":743,"o":"m 418 -14 q 170 86 260 -14 q 81 371 81 186 q 170 656 81 556 q 418 756 260 756 q 657 663 571 756 q 743 399 743 571 l 743 361 l 142 361 l 142 428 l 701 428 l 663 376 l 663 394 q 603 611 663 542 q 418 681 543 681 q 233 611 292 681 q 174 394 174 542 l 174 349 q 233 132 174 201 q 418 63 292 63 q 549 88 501 63 q 615 146 596 114 q 633 196 633 178 l 633 196 l 722 196 q 613 40 690 93 q 418 -14 535 -14 m 210 825 l 379 1031 l 457 1031 l 626 825 l 553 825 l 426 961 l 410 961 l 283 825 l 210 825 z "},"ë":{"ha":821,"x_min":81,"x_max":743,"o":"m 418 -14 q 170 86 260 -14 q 81 371 81 186 q 170 656 81 556 q 418 756 260 756 q 657 663 571 756 q 743 399 743 571 l 743 361 l 142 361 l 142 428 l 701 428 l 663 376 l 663 394 q 603 611 663 542 q 418 681 543 681 q 233 611 292 681 q 174 394 174 542 l 174 349 q 233 132 174 201 q 418 63 292 63 q 549 88 501 63 q 615 146 596 114 q 633 196 633 178 l 633 196 l 722 196 q 613 40 690 93 q 418 -14 535 -14 m 224 882 l 224 986 l 336 986 l 336 882 l 224 882 m 500 882 l 500 986 l 613 986 l 613 882 l 500 882 z "},"ė":{"ha":821,"x_min":81,"x_max":743,"o":"m 418 -14 q 170 86 260 -14 q 81 371 81 186 q 170 656 81 556 q 418 756 260 756 q 657 663 571 756 q 743 399 743 571 l 743 361 l 142 361 l 142 428 l 701 428 l 663 376 l 663 394 q 603 611 663 542 q 418 681 543 681 q 233 611 292 681 q 174 394 174 542 l 174 349 q 233 132 174 201 q 418 63 292 63 q 549 88 501 63 q 615 146 596 114 q 633 196 633 178 l 633 196 l 722 196 q 613 40 690 93 q 418 -14 535 -14 m 364 882 l 364 986 l 472 986 l 472 882 l 364 882 z "},"è":{"ha":821,"x_min":81,"x_max":743,"o":"m 418 -14 q 170 86 260 -14 q 81 371 81 186 q 170 656 81 556 q 418 756 260 756 q 657 663 571 756 q 743 399 743 571 l 743 361 l 142 361 l 142 428 l 701 428 l 663 376 l 663 394 q 603 611 663 542 q 418 681 543 681 q 233 611 292 681 q 174 394 174 542 l 174 349 q 233 132 174 201 q 418 63 292 63 q 549 88 501 63 q 615 146 596 114 q 633 196 633 178 l 633 196 l 722 196 q 613 40 690 93 q 418 -14 535 -14 m 410 825 l 275 1031 l 371 1031 l 474 825 l 410 825 z "},"ē":{"ha":821,"x_min":81,"x_max":743,"o":"m 418 -14 q 170 86 260 -14 q 81 371 81 186 q 170 656 81 556 q 418 756 260 756 q 657 663 571 756 q 743 399 743 571 l 743 361 l 142 361 l 142 428 l 701 428 l 663 376 l 663 394 q 603 611 663 542 q 418 681 543 681 q 233 611 292 681 q 174 394 174 542 l 174 349 q 233 132 174 201 q 418 63 292 63 q 549 88 501 63 q 615 146 596 114 q 633 196 633 178 l 633 196 l 722 196 q 613 40 690 93 q 418 -14 535 -14 m 224 893 l 224 960 l 613 960 l 613 893 l 224 893 z "},"ę":{"ha":821,"x_min":81,"x_max":743,"o":"m 519 -222 q 421 -144 421 -222 q 440 -82 421 -111 q 496 -22 458 -53 l 496 18 l 622 47 q 517 -60 549 -17 q 486 -128 486 -104 q 529 -162 486 -162 l 667 -162 l 667 -222 l 519 -222 m 418 -14 q 170 86 260 -14 q 81 371 81 186 q 170 656 81 556 q 418 756 260 756 q 657 663 571 756 q 743 399 743 571 l 743 361 l 142 361 l 142 428 l 701 428 l 663 376 l 663 394 q 603 611 663 542 q 418 681 543 681 q 233 611 292 681 q 174 394 174 542 l 174 349 q 233 132 174 201 q 418 63 292 63 q 549 88 501 63 q 615 146 596 114 q 633 196 633 178 l 633 196 l 722 196 q 613 40 690 93 q 418 -14 535 -14 z "},"f":{"ha":606,"x_min":38,"x_max":567,"o":"m 215 938 q 281 1003 215 1003 l 567 1003 l 567 932 l 301 932 l 301 0 l 215 0 l 215 938 m 38 671 l 38 742 l 567 742 l 567 671 l 38 671 z "},"g":{"ha":857,"x_min":79,"x_max":731,"o":"m 415 -242 q 217 -194 294 -242 q 115 -54 140 -147 l 207 -54 l 207 -54 q 261 -131 207 -97 q 414 -165 315 -165 q 585 -117 525 -165 q 646 25 646 -68 q 647 86 646 60 q 651 144 649 113 l 635 144 q 533 54 594 86 q 390 22 472 22 q 161 119 243 22 q 79 388 79 215 q 116 583 79 501 q 223 710 153 665 q 390 756 293 756 q 534 722 474 756 q 638 619 594 688 l 654 619 l 654 742 l 731 742 l 731 24 q 649 -172 731 -103 q 415 -242 567 -242 m 407 96 q 587 165 529 96 q 644 368 644 235 l 644 407 q 587 610 644 540 q 407 679 529 679 q 228 610 286 679 q 171 407 171 540 l 171 368 q 228 165 171 235 q 407 96 286 96 z "},"ğ":{"ha":857,"x_min":79,"x_max":731,"o":"m 415 -242 q 217 -194 294 -242 q 115 -54 140 -147 l 207 -54 l 207 -54 q 261 -131 207 -97 q 414 -165 315 -165 q 585 -117 525 -165 q 646 25 646 -68 q 647 86 646 60 q 651 144 649 113 l 635 144 q 533 54 594 86 q 390 22 472 22 q 161 119 243 22 q 79 388 79 215 q 116 583 79 501 q 223 710 153 665 q 390 756 293 756 q 534 722 474 756 q 638 619 594 688 l 654 619 l 654 742 l 731 742 l 731 24 q 649 -172 731 -103 q 415 -242 567 -242 m 407 96 q 587 165 529 96 q 644 368 644 235 l 644 407 q 587 610 644 540 q 407 679 529 679 q 228 610 286 679 q 171 407 171 540 l 171 368 q 228 165 171 235 q 407 96 286 96 m 401 819 q 262 869 313 819 q 203 1031 211 918 l 276 1031 l 276 1031 q 309 917 276 951 q 401 883 342 883 q 494 917 461 883 q 526 1031 526 951 l 526 1031 l 600 1031 q 541 869 592 918 q 401 819 490 819 z "},"ģ":{"ha":857,"x_min":79,"x_max":731,"o":"m 415 -242 q 217 -194 294 -242 q 115 -54 140 -147 l 207 -54 l 207 -54 q 261 -131 207 -97 q 414 -165 315 -165 q 585 -117 525 -165 q 646 25 646 -68 q 647 86 646 60 q 651 144 649 113 l 635 144 q 533 54 594 86 q 390 22 472 22 q 161 119 243 22 q 79 388 79 215 q 116 583 79 501 q 223 710 153 665 q 390 756 293 756 q 534 722 474 756 q 638 619 594 688 l 654 619 l 654 742 l 731 742 l 731 24 q 649 -172 731 -103 q 415 -242 567 -242 m 407 96 q 587 165 529 96 q 644 368 644 235 l 644 407 q 587 610 644 540 q 407 679 529 679 q 228 610 286 679 q 171 407 171 540 l 171 368 q 228 165 171 235 q 407 96 286 96 m 461 1060 l 403 929 l 456 929 l 456 825 l 347 825 l 347 929 l 410 1060 l 461 1060 z "},"ġ":{"ha":857,"x_min":79,"x_max":731,"o":"m 415 -242 q 217 -194 294 -242 q 115 -54 140 -147 l 207 -54 l 207 -54 q 261 -131 207 -97 q 414 -165 315 -165 q 585 -117 525 -165 q 646 25 646 -68 q 647 86 646 60 q 651 144 649 113 l 635 144 q 533 54 594 86 q 390 22 472 22 q 161 119 243 22 q 79 388 79 215 q 116 583 79 501 q 223 710 153 665 q 390 756 293 756 q 534 722 474 756 q 638 619 594 688 l 654 619 l 654 742 l 731 742 l 731 24 q 649 -172 731 -103 q 415 -242 567 -242 m 407 96 q 587 165 529 96 q 644 368 644 235 l 644 407 q 587 610 644 540 q 407 679 529 679 q 228 610 286 679 q 171 407 171 540 l 171 368 q 228 165 171 235 q 407 96 286 96 m 347 882 l 347 986 l 456 986 l 456 882 l 347 882 z "},"h":{"ha":831,"x_min":131,"x_max":710,"o":"m 131 0 l 131 1003 l 217 1003 l 217 807 q 216 738 217 775 q 211 643 215 700 l 226 643 q 319 726 263 697 q 457 756 376 756 q 646 683 582 756 q 710 468 710 611 l 710 0 l 624 0 l 624 450 q 575 624 624 569 q 421 679 526 679 q 266 624 315 679 q 217 450 217 569 l 217 0 l 131 0 z "},"ħ":{"ha":831,"x_min":15,"x_max":710,"o":"m 131 0 l 131 1008 l 217 1008 l 217 807 q 216 738 217 775 q 211 643 215 700 l 226 643 q 319 726 263 697 q 457 756 376 756 q 646 683 582 756 q 710 468 710 611 l 710 0 l 624 0 l 624 450 q 575 624 624 569 q 421 679 526 679 q 266 624 315 679 q 217 450 217 569 l 217 0 l 131 0 m 15 849 l 15 910 l 447 910 l 447 849 l 15 849 z "},"i":{"ha":404,"x_min":49,"x_max":282,"o":"m 186 0 l 186 671 l 49 671 l 49 742 l 272 742 l 272 0 l 186 0 m 169 882 l 169 986 l 282 986 l 282 882 l 169 882 z "},"ı":{"ha":404,"x_min":49,"x_max":272,"o":"m 186 0 l 186 671 l 49 671 l 49 742 l 272 742 l 272 0 l 186 0 z "},"í":{"ha":404,"x_min":49,"x_max":358,"o":"m 186 0 l 186 671 l 49 671 l 49 742 l 272 742 l 272 0 l 186 0 m 160 825 l 263 1031 l 358 1031 l 224 825 l 160 825 z "},"î":{"ha":404,"x_min":18,"x_max":435,"o":"m 186 0 l 186 671 l 49 671 l 49 742 l 272 742 l 272 0 l 186 0 m 18 825 l 188 1031 l 265 1031 l 435 825 l 361 825 l 235 961 l 218 961 l 92 825 l 18 825 z "},"ï":{"ha":404,"x_min":49,"x_max":389,"o":"m 186 0 l 186 671 l 49 671 l 49 742 l 272 742 l 272 0 l 186 0 m 64 882 l 64 986 l 176 986 l 176 882 l 64 882 m 276 882 l 276 986 l 389 986 l 389 882 l 276 882 z "},"ì":{"ha":404,"x_min":49,"x_max":282,"o":"m 186 0 l 186 671 l 49 671 l 49 742 l 272 742 l 272 0 l 186 0 m 218 825 l 83 1031 l 179 1031 l 282 825 l 218 825 z "},"ī":{"ha":404,"x_min":49,"x_max":390,"o":"m 186 0 l 186 671 l 49 671 l 49 742 l 272 742 l 272 0 l 186 0 m 63 893 l 63 960 l 390 960 l 390 893 l 63 893 z "},"į":{"ha":404,"x_min":49,"x_max":319,"o":"m 179 -222 q 81 -144 81 -222 q 105 -73 81 -108 q 186 -15 129 -37 l 186 18 l 272 0 q 175 -73 204 -42 q 146 -128 146 -104 q 189 -162 146 -162 l 319 -162 l 319 -222 l 179 -222 m 186 0 l 186 671 l 49 671 l 49 742 l 272 742 l 272 0 l 186 0 m 169 882 l 169 986 l 282 986 l 282 882 l 169 882 z "},"ĳ":{"ha":808,"x_min":49,"x_max":686,"o":"m 186 0 l 186 671 l 49 671 l 49 742 l 272 742 l 272 0 l 186 0 m 169 882 l 169 986 l 282 986 l 282 882 l 169 882 m 394 -228 l 394 -157 l 590 -157 l 590 671 l 453 671 l 453 742 l 676 742 l 676 -162 q 611 -228 676 -228 l 394 -228 m 574 882 l 574 986 l 686 986 l 686 882 l 574 882 z "},"j":{"ha":404,"x_min":-10,"x_max":282,"o":"m -10 -228 l -10 -157 l 186 -157 l 186 671 l 49 671 l 49 742 l 272 742 l 272 -162 q 207 -228 272 -228 l -10 -228 m 169 882 l 169 986 l 282 986 l 282 882 l 169 882 z "},"ȷ":{"ha":404,"x_min":-10,"x_max":272,"o":"m -10 -228 l -10 -157 l 186 -157 l 186 671 l 49 671 l 49 742 l 272 742 l 272 -162 q 207 -228 272 -228 l -10 -228 z "},"k":{"ha":799,"x_min":132,"x_max":779,"o":"m 132 0 l 132 1003 l 218 1003 l 218 399 l 639 742 l 760 742 l 275 349 l 264 435 l 779 0 l 656 0 l 218 368 l 218 0 l 132 0 z "},"ķ":{"ha":799,"x_min":132,"x_max":779,"o":"m 132 0 l 132 1003 l 218 1003 l 218 399 l 639 742 l 760 742 l 275 349 l 264 435 l 779 0 l 656 0 l 218 368 l 218 0 l 132 0 m 376 -318 l 435 -187 l 382 -187 l 382 -83 l 490 -83 l 490 -187 l 428 -318 l 376 -318 z "},"l":{"ha":454,"x_min":129,"x_max":425,"o":"m 194 0 q 129 65 129 0 l 129 1003 l 215 1003 l 215 71 l 425 71 l 425 0 l 194 0 z "},"ĺ":{"ha":454,"x_min":129,"x_max":425,"o":"m 194 0 q 129 65 129 0 l 129 1003 l 215 1003 l 215 71 l 425 71 l 425 0 l 194 0 m 132 1075 l 235 1281 l 331 1281 l 196 1075 l 132 1075 z "},"ľ":{"ha":454,"x_min":129,"x_max":425,"o":"m 194 0 q 129 65 129 0 l 129 1003 l 215 1003 l 215 71 l 425 71 l 425 0 l 194 0 m 310 786 l 310 1003 l 388 1003 l 360 786 l 310 786 z "},"ļ":{"ha":454,"x_min":129,"x_max":425,"o":"m 194 0 q 129 65 129 0 l 129 1003 l 215 1003 l 215 71 l 425 71 l 425 0 l 194 0 m 226 -318 l 285 -187 l 232 -187 l 232 -83 l 340 -83 l 340 -187 l 278 -318 l 226 -318 z "},"ŀ":{"ha":590,"x_min":129,"x_max":556,"o":"m 194 0 q 129 65 129 0 l 129 1003 l 215 1003 l 215 71 l 425 71 l 425 0 l 194 0 m 444 467 l 444 572 l 556 572 l 556 467 l 444 467 z "},"ł":{"ha":539,"x_min":47,"x_max":474,"o":"m 47 392 l 47 463 l 458 672 l 458 601 l 47 392 m 243 0 q 178 65 178 0 l 178 1003 l 264 1003 l 264 71 l 474 71 l 474 0 l 243 0 z "},"m":{"ha":1243,"x_min":131,"x_max":1124,"o":"m 583 460 q 400 679 583 679 q 217 460 217 679 l 217 0 l 131 0 l 131 742 l 208 742 l 208 638 l 224 638 q 311 726 258 696 q 436 756 364 756 q 563 726 513 756 q 646 638 614 696 l 668 638 q 757 726 704 696 q 890 756 810 756 q 1065 683 1006 756 q 1124 468 1124 611 l 1124 0 l 1038 0 l 1038 460 q 854 679 1038 679 q 671 460 671 679 l 671 0 l 583 0 l 583 460 z "},"n":{"ha":831,"x_min":131,"x_max":710,"o":"m 131 0 l 131 742 l 208 742 l 208 638 l 224 638 q 318 726 261 696 q 457 756 375 756 q 646 683 582 756 q 710 468 710 611 l 710 0 l 624 0 l 624 450 q 575 624 624 569 q 421 679 526 679 q 266 624 315 679 q 217 450 217 569 l 217 0 l 131 0 z "},"ń":{"ha":831,"x_min":131,"x_max":710,"o":"m 131 0 l 131 742 l 208 742 l 208 638 l 224 638 q 318 726 261 696 q 457 756 375 756 q 646 683 582 756 q 710 468 710 611 l 710 0 l 624 0 l 624 450 q 575 624 624 569 q 421 679 526 679 q 266 624 315 679 q 217 450 217 569 l 217 0 l 131 0 m 354 825 l 457 1031 l 553 1031 l 418 825 l 354 825 z "},"ň":{"ha":831,"x_min":131,"x_max":710,"o":"m 131 0 l 131 742 l 208 742 l 208 638 l 224 638 q 318 726 261 696 q 457 756 375 756 q 646 683 582 756 q 710 468 710 611 l 710 0 l 624 0 l 624 450 q 575 624 624 569 q 421 679 526 679 q 266 624 315 679 q 217 450 217 569 l 217 0 l 131 0 m 629 1031 l 460 825 l 382 825 l 213 1031 l 286 1031 l 413 896 l 429 896 l 556 1031 l 629 1031 z "},"ņ":{"ha":831,"x_min":131,"x_max":710,"o":"m 131 0 l 131 742 l 208 742 l 208 638 l 224 638 q 318 726 261 696 q 457 756 375 756 q 646 683 582 756 q 710 468 710 611 l 710 0 l 624 0 l 624 450 q 575 624 624 569 q 421 679 526 679 q 266 624 315 679 q 217 450 217 569 l 217 0 l 131 0 m 361 -318 l 419 -187 l 367 -187 l 367 -83 l 475 -83 l 475 -187 l 413 -318 l 361 -318 z "},"ñ":{"ha":831,"x_min":131,"x_max":710,"o":"m 131 0 l 131 742 l 208 742 l 208 638 l 224 638 q 318 726 261 696 q 457 756 375 756 q 646 683 582 756 q 710 468 710 611 l 710 0 l 624 0 l 624 450 q 575 624 624 569 q 421 679 526 679 q 266 624 315 679 q 217 450 217 569 l 217 0 l 131 0 m 507 825 q 443 846 465 825 q 406 894 421 867 q 377 943 392 922 q 335 964 363 964 q 286 911 286 964 l 286 831 l 228 831 l 228 914 q 256 996 228 967 q 335 1025 285 1025 q 399 1004 376 1025 q 435 956 421 983 q 465 907 450 928 q 507 886 481 886 q 556 939 556 886 l 556 1019 l 614 1019 l 614 936 q 585 855 614 885 q 507 825 557 825 z "},"ŋ":{"ha":832,"x_min":131,"x_max":710,"o":"m 710 158 l 710 -162 q 644 -228 710 -228 l 428 -228 l 428 -157 l 624 -157 l 624 158 l 710 158 m 131 0 l 131 742 l 208 742 l 208 638 l 224 638 q 318 726 261 696 q 457 756 375 756 q 646 683 582 756 q 710 468 710 611 l 710 0 l 624 0 l 624 450 q 575 624 624 569 q 421 679 526 679 q 266 624 315 679 q 217 450 217 569 l 217 0 l 131 0 z "},"o":{"ha":842,"x_min":79,"x_max":761,"o":"m 421 -14 q 170 86 261 -14 q 79 371 79 186 q 170 656 79 556 q 421 756 261 756 q 671 656 581 756 q 761 371 761 556 q 671 86 761 186 q 421 -14 581 -14 m 421 63 q 609 132 549 63 q 669 349 669 201 l 669 393 q 609 610 669 540 q 421 679 549 679 q 233 610 294 679 q 172 393 172 540 l 172 349 q 233 132 172 201 q 421 63 294 63 z "},"ó":{"ha":842,"x_min":79,"x_max":761,"o":"m 421 -14 q 170 86 261 -14 q 79 371 79 186 q 170 656 79 556 q 421 756 261 756 q 671 656 581 756 q 761 371 761 556 q 671 86 761 186 q 421 -14 581 -14 m 421 63 q 609 132 549 63 q 669 349 669 201 l 669 393 q 609 610 669 540 q 421 679 549 679 q 233 610 294 679 q 172 393 172 540 l 172 349 q 233 132 172 201 q 421 63 294 63 m 354 825 l 457 1031 l 553 1031 l 418 825 l 354 825 z "},"ô":{"ha":842,"x_min":79,"x_max":761,"o":"m 421 -14 q 170 86 261 -14 q 79 371 79 186 q 170 656 79 556 q 421 756 261 756 q 671 656 581 756 q 761 371 761 556 q 671 86 761 186 q 421 -14 581 -14 m 421 63 q 609 132 549 63 q 669 349 669 201 l 669 393 q 609 610 669 540 q 421 679 549 679 q 233 610 294 679 q 172 393 172 540 l 172 349 q 233 132 172 201 q 421 63 294 63 m 213 825 l 382 1031 l 460 1031 l 629 825 l 556 825 l 429 961 l 413 961 l 286 825 l 213 825 z "},"ö":{"ha":842,"x_min":79,"x_max":761,"o":"m 421 -14 q 170 86 261 -14 q 79 371 79 186 q 170 656 79 556 q 421 756 261 756 q 671 656 581 756 q 761 371 761 556 q 671 86 761 186 q 421 -14 581 -14 m 421 63 q 609 132 549 63 q 669 349 669 201 l 669 393 q 609 610 669 540 q 421 679 549 679 q 233 610 294 679 q 172 393 172 540 l 172 349 q 233 132 172 201 q 421 63 294 63 m 226 882 l 226 986 l 339 986 l 339 882 l 226 882 m 503 882 l 503 986 l 615 986 l 615 882 l 503 882 z "},"ò":{"ha":842,"x_min":79,"x_max":761,"o":"m 421 -14 q 170 86 261 -14 q 79 371 79 186 q 170 656 79 556 q 421 756 261 756 q 671 656 581 756 q 761 371 761 556 q 671 86 761 186 q 421 -14 581 -14 m 421 63 q 609 132 549 63 q 669 349 669 201 l 669 393 q 609 610 669 540 q 421 679 549 679 q 233 610 294 679 q 172 393 172 540 l 172 349 q 233 132 172 201 q 421 63 294 63 m 413 825 l 278 1031 l 374 1031 l 476 825 l 413 825 z "},"ő":{"ha":842,"x_min":79,"x_max":761,"o":"m 421 -14 q 170 86 261 -14 q 79 371 79 186 q 170 656 79 556 q 421 756 261 756 q 671 656 581 756 q 761 371 761 556 q 671 86 761 186 q 421 -14 581 -14 m 421 63 q 609 132 549 63 q 669 349 669 201 l 669 393 q 609 610 669 540 q 421 679 549 679 q 233 610 294 679 q 172 393 172 540 l 172 349 q 233 132 172 201 q 421 63 294 63 m 251 825 l 354 1031 l 450 1031 l 315 825 l 251 825 m 457 825 l 560 1031 l 656 1031 l 521 825 l 457 825 z "},"ō":{"ha":842,"x_min":79,"x_max":761,"o":"m 421 -14 q 170 86 261 -14 q 79 371 79 186 q 170 656 79 556 q 421 756 261 756 q 671 656 581 756 q 761 371 761 556 q 671 86 761 186 q 421 -14 581 -14 m 421 63 q 609 132 549 63 q 669 349 669 201 l 669 393 q 609 610 669 540 q 421 679 549 679 q 233 610 294 679 q 172 393 172 540 l 172 349 q 233 132 172 201 q 421 63 294 63 m 226 893 l 226 960 l 615 960 l 615 893 l 226 893 z "},"ø":{"ha":847,"x_min":64,"x_max":783,"o":"m 424 -14 q 173 86 264 -14 q 82 371 82 186 q 173 656 82 556 q 424 756 264 756 q 674 656 583 756 q 764 371 764 556 q 674 86 764 186 q 424 -14 583 -14 m 424 63 q 612 132 551 63 q 672 349 672 201 l 672 393 q 612 610 672 542 q 424 679 551 679 q 236 610 297 679 q 175 393 175 540 l 175 349 q 236 132 175 201 q 424 63 297 63 m 64 -42 l 190 125 l 193 125 l 599 660 l 601 660 l 699 783 l 783 783 l 657 617 l 654 617 l 249 82 l 246 82 l 149 -42 l 64 -42 z "},"õ":{"ha":842,"x_min":79,"x_max":761,"o":"m 421 -14 q 170 86 261 -14 q 79 371 79 186 q 170 656 79 556 q 421 756 261 756 q 671 656 581 756 q 761 371 761 556 q 671 86 761 186 q 421 -14 581 -14 m 421 63 q 609 132 549 63 q 669 349 669 201 l 669 393 q 609 610 669 540 q 421 679 549 679 q 233 610 294 679 q 172 393 172 540 l 172 349 q 233 132 172 201 q 421 63 294 63 m 507 825 q 443 846 465 825 q 406 894 421 867 q 377 943 392 922 q 335 964 363 964 q 286 911 286 964 l 286 831 l 228 831 l 228 914 q 256 996 228 967 q 335 1025 285 1025 q 399 1004 376 1025 q 435 956 421 983 q 465 907 450 928 q 507 886 481 886 q 556 939 556 886 l 556 1019 l 614 1019 l 614 936 q 585 855 614 885 q 507 825 557 825 z "},"œ":{"ha":1392,"x_min":81,"x_max":1313,"o":"m 417 -14 q 169 86 258 -14 q 81 371 81 186 q 169 656 81 556 q 417 756 258 756 q 594 715 524 756 q 699 608 664 674 l 715 608 q 819 715 750 674 q 993 756 889 756 q 1227 663 1142 756 q 1313 399 1313 571 l 1313 361 l 722 361 l 722 428 l 1286 428 l 1232 375 l 1232 394 q 1174 611 1232 542 q 993 681 1115 681 q 812 611 871 681 q 753 394 753 542 l 753 349 q 812 132 753 201 q 993 63 871 63 q 1120 88 1075 63 q 1184 146 1165 114 q 1203 196 1203 178 l 1203 196 l 1293 196 q 1185 40 1261 93 q 993 -14 1108 -14 q 819 28 888 -14 q 715 133 750 69 l 699 133 q 594 28 664 69 q 417 -14 524 -14 m 417 63 q 602 132 543 63 q 661 349 661 201 l 661 393 q 602 610 661 540 q 417 679 543 679 q 233 610 292 679 q 174 393 174 540 l 174 349 q 233 132 174 201 q 417 63 292 63 z "},"p":{"ha":863,"x_min":131,"x_max":782,"o":"m 131 -228 l 131 742 l 208 742 l 208 619 l 224 619 q 328 722 268 688 q 471 756 389 756 q 639 710 569 756 q 745 580 708 665 q 782 371 782 494 q 700 86 782 186 q 471 -14 618 -14 q 329 19 389 -14 q 226 115 269 51 l 211 115 q 216 21 215 58 q 217 -49 217 -17 l 217 -228 l 131 -228 m 454 63 q 633 132 575 63 q 690 347 690 201 l 690 394 q 633 610 690 540 q 454 679 575 679 q 274 610 332 679 q 217 394 217 540 l 217 347 q 274 132 217 201 q 454 63 332 63 z "},"þ":{"ha":863,"x_min":131,"x_max":782,"o":"m 131 -228 l 131 1003 l 217 1003 l 217 790 q 216 721 217 758 q 211 626 215 683 l 226 626 q 329 723 269 690 q 471 756 389 756 q 639 710 569 756 q 745 580 708 665 q 782 371 782 494 q 745 163 782 249 q 639 31 708 76 q 471 -14 569 -14 q 329 19 389 -14 q 226 115 269 51 l 211 115 q 216 21 215 58 q 217 -49 217 -17 l 217 -228 l 131 -228 m 454 63 q 633 132 575 63 q 690 347 690 201 l 690 394 q 633 610 690 540 q 454 679 575 679 q 274 610 332 679 q 217 394 217 540 l 217 347 q 274 132 217 201 q 454 63 332 63 z "},"q":{"ha":860,"x_min":81,"x_max":732,"o":"m 646 -228 l 646 -49 q 647 21 646 -17 q 653 115 647 58 l 636 115 q 533 19 593 51 q 392 -14 474 -14 q 163 86 244 -14 q 81 371 81 186 q 117 580 81 494 q 224 710 154 665 q 392 756 294 756 q 535 722 475 756 q 639 619 596 688 l 656 619 l 656 742 l 732 742 l 732 -228 l 646 -228 m 408 63 q 588 132 531 63 q 646 347 646 201 l 646 394 q 588 610 646 540 q 408 679 531 679 q 230 610 288 679 q 172 394 172 540 l 172 347 q 230 132 172 201 q 408 63 288 63 z "},"r":{"ha":646,"x_min":131,"x_max":600,"o":"m 131 0 l 131 742 l 208 742 l 208 629 l 224 629 q 315 717 261 688 q 451 747 369 747 l 600 747 l 600 665 l 421 665 q 266 613 315 665 q 217 442 217 561 l 217 0 l 131 0 z "},"ŕ":{"ha":646,"x_min":131,"x_max":600,"o":"m 131 0 l 131 742 l 208 742 l 208 629 l 224 629 q 315 717 261 688 q 451 747 369 747 l 600 747 l 600 665 l 421 665 q 266 613 315 665 q 217 442 217 561 l 217 0 l 131 0 m 304 825 l 407 1031 l 503 1031 l 368 825 l 304 825 z "},"ř":{"ha":646,"x_min":131,"x_max":600,"o":"m 131 0 l 131 742 l 208 742 l 208 629 l 224 629 q 315 717 261 688 q 451 747 369 747 l 600 747 l 600 665 l 421 665 q 266 613 315 665 q 217 442 217 561 l 217 0 l 131 0 m 579 1031 l 410 825 l 332 825 l 163 1031 l 236 1031 l 363 896 l 379 896 l 506 1031 l 579 1031 z "},"ŗ":{"ha":646,"x_min":114,"x_max":600,"o":"m 131 0 l 131 742 l 208 742 l 208 629 l 224 629 q 315 717 261 688 q 451 747 369 747 l 600 747 l 600 665 l 421 665 q 266 613 315 665 q 217 442 217 561 l 217 0 l 131 0 m 114 -318 l 172 -187 l 119 -187 l 119 -83 l 228 -83 l 228 -187 l 165 -318 l 114 -318 z "},"s":{"ha":767,"x_min":81,"x_max":689,"o":"m 385 -14 q 181 37 256 -14 q 81 196 107 88 l 171 196 l 171 196 q 188 140 171 172 q 252 85 206 108 q 385 61 299 61 q 544 97 486 61 q 603 199 603 133 q 567 272 603 246 q 446 315 532 297 l 286 347 q 131 415 181 369 q 82 538 82 460 q 160 698 82 640 q 381 756 239 756 q 582 705 508 756 q 682 546 656 654 l 593 546 l 593 546 q 576 601 593 569 q 513 657 558 633 q 381 681 467 681 q 226 644 282 681 q 169 543 169 608 q 204 469 169 496 q 322 426 239 443 l 482 396 q 639 328 589 374 q 689 206 689 283 q 609 44 689 103 q 385 -14 529 -14 z "},"ś":{"ha":767,"x_min":81,"x_max":689,"o":"m 385 -14 q 181 37 256 -14 q 81 196 107 88 l 171 196 l 171 196 q 188 140 171 172 q 252 85 206 108 q 385 61 299 61 q 544 97 486 61 q 603 199 603 133 q 567 272 603 246 q 446 315 532 297 l 286 347 q 131 415 181 369 q 82 538 82 460 q 160 698 82 640 q 381 756 239 756 q 582 705 508 756 q 682 546 656 654 l 593 546 l 593 546 q 576 601 593 569 q 513 657 558 633 q 381 681 467 681 q 226 644 282 681 q 169 543 169 608 q 204 469 169 496 q 322 426 239 443 l 482 396 q 639 328 589 374 q 689 206 689 283 q 609 44 689 103 q 385 -14 529 -14 m 308 825 l 411 1031 l 507 1031 l 372 825 l 308 825 z "},"š":{"ha":767,"x_min":81,"x_max":689,"o":"m 385 -14 q 181 37 256 -14 q 81 196 107 88 l 171 196 l 171 196 q 188 140 171 172 q 252 85 206 108 q 385 61 299 61 q 544 97 486 61 q 603 199 603 133 q 567 272 603 246 q 446 315 532 297 l 286 347 q 131 415 181 369 q 82 538 82 460 q 160 698 82 640 q 381 756 239 756 q 582 705 508 756 q 682 546 656 654 l 593 546 l 593 546 q 576 601 593 569 q 513 657 558 633 q 381 681 467 681 q 226 644 282 681 q 169 543 169 608 q 204 469 169 496 q 322 426 239 443 l 482 396 q 639 328 589 374 q 689 206 689 283 q 609 44 689 103 q 385 -14 529 -14 m 583 1031 l 414 825 l 336 825 l 167 1031 l 240 1031 l 367 896 l 383 896 l 510 1031 l 583 1031 z "},"ş":{"ha":767,"x_min":81,"x_max":689,"o":"m 385 -14 q 181 37 256 -14 q 81 196 107 88 l 171 196 l 171 196 q 188 140 171 172 q 252 85 206 108 q 385 61 299 61 q 544 97 486 61 q 603 199 603 133 q 567 272 603 246 q 446 315 532 297 l 286 347 q 131 415 181 369 q 82 538 82 460 q 160 698 82 640 q 381 756 239 756 q 582 705 508 756 q 682 546 656 654 l 593 546 l 593 546 q 576 601 593 569 q 513 657 558 633 q 381 681 467 681 q 226 644 282 681 q 169 543 169 608 q 204 469 169 496 q 322 426 239 443 l 482 396 q 639 328 589 374 q 689 206 689 283 q 609 44 689 103 q 385 -14 529 -14 m 281 -242 l 281 -182 l 446 -182 q 489 -147 489 -182 q 446 -112 489 -112 l 351 -112 l 351 14 l 418 14 l 418 -83 l 393 -61 l 450 -61 q 560 -150 560 -61 q 450 -242 560 -242 l 281 -242 z "},"ș":{"ha":767,"x_min":81,"x_max":689,"o":"m 385 -14 q 181 37 256 -14 q 81 196 107 88 l 171 196 l 171 196 q 188 140 171 172 q 252 85 206 108 q 385 61 299 61 q 544 97 486 61 q 603 199 603 133 q 567 272 603 246 q 446 315 532 297 l 286 347 q 131 415 181 369 q 82 538 82 460 q 160 698 82 640 q 381 756 239 756 q 582 705 508 756 q 682 546 656 654 l 593 546 l 593 546 q 576 601 593 569 q 513 657 558 633 q 381 681 467 681 q 226 644 282 681 q 169 543 169 608 q 204 469 169 496 q 322 426 239 443 l 482 396 q 639 328 589 374 q 689 206 689 283 q 609 44 689 103 q 385 -14 529 -14 m 325 -318 l 383 -187 l 331 -187 l 331 -83 l 439 -83 l 439 -187 l 376 -318 l 325 -318 z "},"ß":{"ha":851,"x_min":131,"x_max":772,"o":"m 131 685 q 213 895 131 818 q 438 972 294 972 q 656 901 576 972 q 735 708 735 831 q 698 571 735 621 q 588 508 661 521 l 588 492 q 772 268 772 463 q 699 71 772 142 q 494 0 626 0 l 339 0 l 339 71 l 486 71 q 683 251 683 71 l 683 285 q 486 464 683 464 l 360 464 l 360 536 l 481 536 q 646 696 646 536 l 646 719 q 593 850 646 806 q 438 894 540 894 q 273 844 329 894 q 217 694 217 793 l 217 0 l 131 0 l 131 685 z "},"t":{"ha":601,"x_min":35,"x_max":558,"o":"m 283 0 q 218 65 218 0 l 218 953 l 304 953 l 304 71 l 558 71 l 558 0 l 283 0 m 35 671 l 35 742 l 558 742 l 558 671 l 35 671 z "},"ť":{"ha":601,"x_min":35,"x_max":558,"o":"m 283 0 q 218 65 218 0 l 218 953 l 304 953 l 304 71 l 558 71 l 558 0 l 283 0 m 35 671 l 35 742 l 558 742 l 558 671 l 35 671 m 399 786 l 399 1003 l 476 1003 l 449 786 l 399 786 z "},"ț":{"ha":601,"x_min":35,"x_max":558,"o":"m 283 0 q 218 65 218 0 l 218 953 l 304 953 l 304 71 l 558 71 l 558 0 l 283 0 m 35 671 l 35 742 l 558 742 l 558 671 l 35 671 m 324 -318 l 382 -187 l 329 -187 l 329 -83 l 438 -83 l 438 -187 l 375 -318 l 324 -318 z "},"u":{"ha":831,"x_min":119,"x_max":700,"o":"m 374 -14 q 184 58 249 -14 q 119 274 119 131 l 119 742 l 206 742 l 206 292 q 255 117 206 172 q 410 63 304 63 q 565 117 517 63 q 614 292 614 172 l 614 742 l 700 742 l 700 0 l 622 0 l 622 104 l 607 104 q 513 16 569 46 q 374 -14 456 -14 z "},"ú":{"ha":831,"x_min":119,"x_max":700,"o":"m 374 -14 q 184 58 249 -14 q 119 274 119 131 l 119 742 l 206 742 l 206 292 q 255 117 206 172 q 410 63 304 63 q 565 117 517 63 q 614 292 614 172 l 614 742 l 700 742 l 700 0 l 622 0 l 622 104 l 607 104 q 513 16 569 46 q 374 -14 456 -14 m 343 825 l 446 1031 l 542 1031 l 407 825 l 343 825 z "},"ŭ":{"ha":831,"x_min":119,"x_max":700,"o":"m 374 -14 q 184 58 249 -14 q 119 274 119 131 l 119 742 l 206 742 l 206 292 q 255 117 206 172 q 410 63 304 63 q 565 117 517 63 q 614 292 614 172 l 614 742 l 700 742 l 700 0 l 622 0 l 622 104 l 607 104 q 513 16 569 46 q 374 -14 456 -14 m 410 819 q 270 869 321 819 q 211 1031 219 918 l 285 1031 l 285 1031 q 317 917 285 951 q 410 883 350 883 q 502 917 469 883 q 535 1031 535 951 l 535 1031 l 608 1031 q 549 869 600 918 q 410 819 499 819 z "},"û":{"ha":831,"x_min":119,"x_max":700,"o":"m 374 -14 q 184 58 249 -14 q 119 274 119 131 l 119 742 l 206 742 l 206 292 q 255 117 206 172 q 410 63 304 63 q 565 117 517 63 q 614 292 614 172 l 614 742 l 700 742 l 700 0 l 622 0 l 622 104 l 607 104 q 513 16 569 46 q 374 -14 456 -14 m 201 825 l 371 1031 l 449 1031 l 618 825 l 544 825 l 418 961 l 401 961 l 275 825 l 201 825 z "},"ü":{"ha":831,"x_min":119,"x_max":700,"o":"m 374 -14 q 184 58 249 -14 q 119 274 119 131 l 119 742 l 206 742 l 206 292 q 255 117 206 172 q 410 63 304 63 q 565 117 517 63 q 614 292 614 172 l 614 742 l 700 742 l 700 0 l 622 0 l 622 104 l 607 104 q 513 16 569 46 q 374 -14 456 -14 m 215 882 l 215 986 l 328 986 l 328 882 l 215 882 m 492 882 l 492 986 l 604 986 l 604 882 l 492 882 z "},"ù":{"ha":831,"x_min":119,"x_max":700,"o":"m 374 -14 q 184 58 249 -14 q 119 274 119 131 l 119 742 l 206 742 l 206 292 q 255 117 206 172 q 410 63 304 63 q 565 117 517 63 q 614 292 614 172 l 614 742 l 700 742 l 700 0 l 622 0 l 622 104 l 607 104 q 513 16 569 46 q 374 -14 456 -14 m 401 825 l 267 1031 l 363 1031 l 465 825 l 401 825 z "},"ű":{"ha":831,"x_min":119,"x_max":700,"o":"m 374 -14 q 184 58 249 -14 q 119 274 119 131 l 119 742 l 206 742 l 206 292 q 255 117 206 172 q 410 63 304 63 q 565 117 517 63 q 614 292 614 172 l 614 742 l 700 742 l 700 0 l 622 0 l 622 104 l 607 104 q 513 16 569 46 q 374 -14 456 -14 m 240 825 l 343 1031 l 439 1031 l 304 825 l 240 825 m 446 825 l 549 1031 l 644 1031 l 510 825 l 446 825 z "},"ū":{"ha":831,"x_min":119,"x_max":700,"o":"m 374 -14 q 184 58 249 -14 q 119 274 119 131 l 119 742 l 206 742 l 206 292 q 255 117 206 172 q 410 63 304 63 q 565 117 517 63 q 614 292 614 172 l 614 742 l 700 742 l 700 0 l 622 0 l 622 104 l 607 104 q 513 16 569 46 q 374 -14 456 -14 m 215 893 l 215 960 l 604 960 l 604 893 l 215 893 z "},"ų":{"ha":831,"x_min":119,"x_max":740,"o":"m 600 -222 q 501 -144 501 -222 q 533 -73 501 -108 q 622 -15 564 -37 l 622 18 l 700 0 q 597 -72 628 -39 q 567 -128 567 -104 q 610 -162 567 -162 l 740 -162 l 740 -222 l 600 -222 m 374 -14 q 184 58 249 -14 q 119 274 119 131 l 119 742 l 206 742 l 206 292 q 255 117 206 172 q 410 63 304 63 q 565 117 517 63 q 614 292 614 172 l 614 742 l 700 742 l 700 0 l 622 0 l 622 104 l 607 104 q 513 16 569 46 q 374 -14 456 -14 z "},"ů":{"ha":831,"x_min":119,"x_max":700,"o":"m 374 -14 q 184 58 249 -14 q 119 274 119 131 l 119 742 l 206 742 l 206 292 q 255 117 206 172 q 410 63 304 63 q 565 117 517 63 q 614 292 614 172 l 614 742 l 700 742 l 700 0 l 622 0 l 622 104 l 607 104 q 513 16 569 46 q 374 -14 456 -14 m 410 814 q 308 851 347 814 q 269 947 269 888 q 308 1044 269 1008 q 410 1081 347 1081 q 512 1044 474 1081 q 550 947 550 1008 q 512 851 550 888 q 410 814 474 814 m 410 867 q 486 946 486 867 l 486 949 q 410 1028 486 1028 q 333 949 333 1028 l 333 946 q 410 867 333 867 z "},"v":{"ha":779,"x_min":39,"x_max":739,"o":"m 340 0 l 39 742 l 129 742 l 383 107 l 399 107 l 651 742 l 739 742 l 438 0 l 340 0 z "},"w":{"ha":1196,"x_min":44,"x_max":1150,"o":"m 288 0 l 44 742 l 132 742 l 332 107 l 347 107 l 563 742 l 635 742 l 850 107 l 865 107 l 1065 742 l 1150 742 l 908 0 l 811 0 l 606 599 l 590 599 l 385 0 l 288 0 z "},"ẃ":{"ha":1196,"x_min":44,"x_max":1150,"o":"m 288 0 l 44 742 l 132 742 l 332 107 l 347 107 l 563 742 l 635 742 l 850 107 l 865 107 l 1065 742 l 1150 742 l 908 0 l 811 0 l 606 599 l 590 599 l 385 0 l 288 0 m 532 825 l 635 1031 l 731 1031 l 596 825 l 532 825 z "},"ŵ":{"ha":1196,"x_min":44,"x_max":1150,"o":"m 288 0 l 44 742 l 132 742 l 332 107 l 347 107 l 563 742 l 635 742 l 850 107 l 865 107 l 1065 742 l 1150 742 l 908 0 l 811 0 l 606 599 l 590 599 l 385 0 l 288 0 m 390 825 l 560 1031 l 638 1031 l 807 825 l 733 825 l 607 961 l 590 961 l 464 825 l 390 825 z "},"ẅ":{"ha":1196,"x_min":44,"x_max":1150,"o":"m 288 0 l 44 742 l 132 742 l 332 107 l 347 107 l 563 742 l 635 742 l 850 107 l 865 107 l 1065 742 l 1150 742 l 908 0 l 811 0 l 606 599 l 590 599 l 385 0 l 288 0 m 404 882 l 404 986 l 517 986 l 517 882 l 404 882 m 681 882 l 681 986 l 793 986 l 793 882 l 681 882 z "},"ẁ":{"ha":1196,"x_min":44,"x_max":1150,"o":"m 288 0 l 44 742 l 132 742 l 332 107 l 347 107 l 563 742 l 635 742 l 850 107 l 865 107 l 1065 742 l 1150 742 l 908 0 l 811 0 l 606 599 l 590 599 l 385 0 l 288 0 m 590 825 l 456 1031 l 551 1031 l 654 825 l 590 825 z "},"x":{"ha":757,"x_min":33,"x_max":722,"o":"m 33 0 l 332 414 l 331 361 l 44 742 l 146 742 l 372 433 l 388 433 l 613 742 l 713 742 l 425 361 l 424 414 l 722 0 l 619 0 l 385 333 l 369 333 l 133 0 l 33 0 z "},"y":{"ha":781,"x_min":40,"x_max":740,"o":"m 231 -228 l 353 44 l 361 -7 l 40 742 l 131 742 l 383 139 l 399 139 l 653 742 l 740 742 l 321 -228 l 231 -228 z "},"ý":{"ha":781,"x_min":40,"x_max":740,"o":"m 231 -228 l 353 44 l 361 -7 l 40 742 l 131 742 l 383 139 l 399 139 l 653 742 l 740 742 l 321 -228 l 231 -228 m 325 825 l 428 1031 l 524 1031 l 389 825 l 325 825 z "},"ŷ":{"ha":781,"x_min":40,"x_max":740,"o":"m 231 -228 l 353 44 l 361 -7 l 40 742 l 131 742 l 383 139 l 399 139 l 653 742 l 740 742 l 321 -228 l 231 -228 m 183 825 l 353 1031 l 431 1031 l 600 825 l 526 825 l 400 961 l 383 961 l 257 825 l 183 825 z "},"ÿ":{"ha":781,"x_min":40,"x_max":740,"o":"m 231 -228 l 353 44 l 361 -7 l 40 742 l 131 742 l 383 139 l 399 139 l 653 742 l 740 742 l 321 -228 l 231 -228 m 197 882 l 197 986 l 310 986 l 310 882 l 197 882 m 474 882 l 474 986 l 586 986 l 586 882 l 474 882 z "},"ỳ":{"ha":781,"x_min":40,"x_max":740,"o":"m 231 -228 l 353 44 l 361 -7 l 40 742 l 131 742 l 383 139 l 399 139 l 653 742 l 740 742 l 321 -228 l 231 -228 m 383 825 l 249 1031 l 344 1031 l 447 825 l 383 825 z "},"z":{"ha":714,"x_min":68,"x_max":643,"o":"m 68 0 l 68 71 l 531 671 l 74 671 l 74 742 l 639 742 l 639 671 l 178 71 l 643 71 l 643 0 l 68 0 z "},"ź":{"ha":714,"x_min":68,"x_max":643,"o":"m 68 0 l 68 71 l 531 671 l 74 671 l 74 742 l 639 742 l 639 671 l 178 71 l 643 71 l 643 0 l 68 0 m 289 825 l 392 1031 l 488 1031 l 353 825 l 289 825 z "},"ž":{"ha":714,"x_min":68,"x_max":643,"o":"m 68 0 l 68 71 l 531 671 l 74 671 l 74 742 l 639 742 l 639 671 l 178 71 l 643 71 l 643 0 l 68 0 m 564 1031 l 394 825 l 317 825 l 147 1031 l 221 1031 l 347 896 l 364 896 l 490 1031 l 564 1031 z "},"ż":{"ha":714,"x_min":68,"x_max":643,"o":"m 68 0 l 68 71 l 531 671 l 74 671 l 74 742 l 639 742 l 639 671 l 178 71 l 643 71 l 643 0 l 68 0 m 301 882 l 301 986 l 410 986 l 410 882 l 301 882 z "},"ﬁ":{"ha":1010,"x_min":38,"x_max":889,"o":"m 215 938 q 281 1003 215 1003 l 567 1003 l 567 932 l 301 932 l 301 0 l 215 0 l 215 938 m 38 671 l 38 742 l 567 742 l 567 671 l 38 671 m 792 0 l 792 671 l 654 671 l 654 742 l 878 742 l 878 0 l 792 0 m 775 882 l 775 986 l 889 986 l 889 882 l 775 882 z "},"ﬂ":{"ha":1061,"x_min":38,"x_max":1031,"o":"m 215 938 q 281 1003 215 1003 l 567 1003 l 567 932 l 301 932 l 301 0 l 215 0 l 215 938 m 38 671 l 38 742 l 567 742 l 567 671 l 38 671 m 800 0 q 735 65 735 0 l 735 1003 l 821 1003 l 821 71 l 1031 71 l 1031 0 l 800 0 z "},"ª":{"ha":643,"x_min":96,"x_max":526,"o":"m 272 453 q 143 489 190 453 q 96 590 96 525 q 142 694 96 658 q 285 739 188 729 l 449 753 l 449 700 l 308 686 q 207 659 236 679 q 178 599 178 639 l 178 597 q 301 514 178 514 q 449 636 449 514 l 449 711 l 449 724 l 449 776 q 417 873 449 842 q 321 904 386 904 q 227 879 261 904 q 193 818 193 854 l 193 818 l 111 818 q 324 967 144 967 q 474 919 422 967 q 526 781 526 871 l 526 461 l 457 461 l 457 533 l 442 533 q 376 474 418 494 q 272 453 335 453 z "},"º":{"ha":669,"x_min":86,"x_max":585,"o":"m 336 453 q 152 519 218 453 q 86 710 86 586 q 152 900 86 833 q 336 967 218 967 q 518 900 451 967 q 585 710 585 833 q 518 519 585 586 q 336 453 451 453 m 336 515 q 461 558 421 515 q 501 692 501 601 l 501 726 q 461 861 501 818 q 336 904 421 904 q 210 861 251 904 q 169 726 169 818 l 169 692 q 210 558 169 601 q 336 515 251 515 z "},"π":{"ha":947,"x_min":39,"x_max":882,"o":"m 718 0 q 653 65 653 0 l 653 714 l 739 714 l 739 71 l 882 71 l 882 0 l 718 0 m 182 0 l 182 714 l 268 714 l 268 0 l 182 0 m 39 671 l 39 742 l 882 742 l 882 671 l 39 671 z "},"⁄":{"ha":76,"x_min":-347,"x_max":425,"o":"m -347 0 l 336 958 l 425 958 l -258 0 l -347 0 z "},"½":{"ha":1047,"x_min":65,"x_max":974,"o":"m 203 511 l 203 886 l 82 838 l 82 896 l 231 958 l 283 958 l 283 511 l 203 511 m 65 0 l 749 958 l 838 958 l 154 0 l 65 0 m 563 0 l 563 89 q 597 183 563 151 q 706 231 631 214 l 803 253 q 873 278 853 264 q 893 318 893 292 l 893 321 q 860 374 893 356 q 769 393 828 393 q 644 301 644 393 l 644 296 l 564 296 q 626 415 575 376 q 769 453 676 453 q 919 417 865 453 q 974 321 974 382 l 974 319 q 940 240 974 268 q 833 194 907 211 l 735 172 q 663 142 682 160 q 643 88 643 124 l 643 25 l 601 64 l 971 64 l 971 0 l 563 0 z "},"⅓":{"ha":1053,"x_min":65,"x_max":981,"o":"m 203 511 l 203 886 l 82 838 l 82 896 l 231 958 l 283 958 l 283 511 l 203 511 m 65 0 l 749 958 l 838 958 l 154 0 l 65 0 m 772 -7 q 628 28 679 -7 q 564 142 576 64 l 646 142 l 646 136 q 678 77 646 100 q 772 54 710 54 q 864 73 831 54 q 897 126 897 92 l 897 129 q 810 200 897 200 l 693 200 l 693 256 l 810 256 q 894 321 894 256 l 894 322 q 862 374 894 356 q 772 393 829 393 q 678 370 710 393 q 647 311 647 347 l 647 306 l 567 306 q 631 417 581 382 q 772 453 681 453 q 922 419 867 453 q 976 328 976 386 q 952 264 976 288 q 883 235 928 240 l 883 221 q 956 190 932 215 q 981 124 981 164 q 924 28 981 63 q 772 -7 868 -7 z "},"⅔":{"ha":1197,"x_min":74,"x_max":1126,"o":"m 74 511 l 74 600 q 108 694 74 663 q 217 742 142 725 l 314 764 q 384 789 364 775 q 404 829 404 803 l 404 832 q 372 885 404 867 q 281 904 339 904 q 156 813 156 904 l 156 807 l 75 807 q 137 926 86 888 q 281 964 188 964 q 431 928 376 964 q 485 832 485 893 l 485 831 q 451 751 485 779 q 344 706 418 722 l 246 683 q 174 653 193 671 q 154 599 154 635 l 154 536 l 113 575 l 482 575 l 482 511 l 74 511 m 210 0 l 893 958 l 982 958 l 299 0 l 210 0 m 918 -7 q 774 28 825 -7 q 710 142 722 64 l 792 142 l 792 136 q 824 77 792 100 q 918 54 856 54 q 1010 73 976 54 q 1043 126 1043 92 l 1043 129 q 956 200 1043 200 l 839 200 l 839 256 l 956 256 q 1040 321 1040 256 l 1040 322 q 1008 374 1040 356 q 918 393 975 393 q 824 370 856 393 q 793 311 793 347 l 793 306 l 713 306 q 776 417 726 382 q 918 453 826 453 q 1067 419 1013 453 q 1122 328 1122 386 q 1098 264 1122 288 q 1029 235 1074 240 l 1029 221 q 1102 190 1078 215 q 1126 124 1126 164 q 1070 28 1126 63 q 918 -7 1014 -7 z "},"¼":{"ha":1025,"x_min":65,"x_max":969,"o":"m 203 511 l 203 886 l 82 838 l 82 896 l 231 958 l 283 958 l 283 511 l 203 511 m 65 0 l 749 958 l 838 958 l 154 0 l 65 0 m 550 92 l 550 154 l 761 447 l 874 447 l 874 154 l 969 154 l 969 92 l 874 92 l 874 0 l 800 0 l 800 92 l 550 92 m 629 154 l 800 154 l 800 374 l 788 374 l 629 154 z "},"¾":{"ha":1175,"x_min":75,"x_max":1121,"o":"m 283 504 q 139 540 190 504 q 75 653 88 575 l 157 653 l 157 647 q 189 588 157 611 q 283 565 221 565 q 375 584 342 565 q 408 638 408 603 l 408 640 q 321 711 408 711 l 204 711 l 204 767 l 321 767 q 406 832 406 767 l 406 833 q 373 885 406 867 q 283 904 340 904 q 190 881 221 904 q 158 822 158 858 l 158 817 l 78 817 q 142 928 92 893 q 283 964 192 964 q 433 931 378 964 q 488 839 488 897 q 463 775 488 799 q 394 746 439 751 l 394 732 q 467 701 443 726 q 492 635 492 675 q 435 539 492 574 q 283 504 379 504 m 215 0 l 899 958 l 988 958 l 304 0 l 215 0 m 701 92 l 701 154 l 913 447 l 1025 447 l 1025 154 l 1121 154 l 1121 92 l 1025 92 l 1025 0 l 951 0 l 951 92 l 701 92 m 781 154 l 951 154 l 951 374 l 939 374 l 781 154 z "},"₁":{"ha":413,"x_min":82,"x_max":283,"o":"m 203 0 l 203 375 l 82 326 l 82 385 l 231 447 l 283 447 l 283 0 l 203 0 z "},"₂":{"ha":557,"x_min":74,"x_max":485,"o":"m 74 0 l 74 89 q 108 183 74 151 q 217 231 142 214 l 314 253 q 384 278 364 264 q 404 318 404 292 l 404 321 q 372 374 404 356 q 281 393 339 393 q 156 301 156 393 l 156 296 l 75 296 q 137 415 86 376 q 281 453 188 453 q 431 417 376 453 q 485 321 485 382 l 485 319 q 451 240 485 268 q 344 194 418 211 l 246 172 q 174 142 193 160 q 154 88 154 124 l 154 25 l 113 64 l 482 64 l 482 0 l 74 0 z "},"₃":{"ha":563,"x_min":75,"x_max":492,"o":"m 283 -7 q 139 28 190 -7 q 75 142 88 64 l 157 142 l 157 136 q 189 77 157 100 q 283 54 221 54 q 375 73 342 54 q 408 126 408 92 l 408 129 q 321 200 408 200 l 204 200 l 204 256 l 321 256 q 406 321 406 256 l 406 322 q 373 374 406 356 q 283 393 340 393 q 190 370 221 393 q 158 311 158 347 l 158 306 l 78 306 q 142 417 92 382 q 283 453 192 453 q 433 419 378 453 q 488 328 488 386 q 463 264 488 288 q 394 235 439 240 l 394 221 q 467 190 443 215 q 492 124 492 164 q 435 28 492 63 q 283 -7 379 -7 z "},"₄":{"ha":536,"x_min":61,"x_max":481,"o":"m 61 92 l 61 154 l 272 447 l 385 447 l 385 154 l 481 154 l 481 92 l 385 92 l 385 0 l 311 0 l 311 92 l 61 92 m 140 154 l 311 154 l 311 374 l 299 374 l 140 154 z "},"¹":{"ha":413,"x_min":82,"x_max":283,"o":"m 203 511 l 203 886 l 82 838 l 82 896 l 231 958 l 283 958 l 283 511 l 203 511 z "},"²":{"ha":557,"x_min":74,"x_max":485,"o":"m 74 511 l 74 600 q 108 694 74 663 q 217 742 142 725 l 314 764 q 384 789 364 775 q 404 829 404 803 l 404 832 q 372 885 404 867 q 281 904 339 904 q 156 813 156 904 l 156 807 l 75 807 q 137 926 86 888 q 281 964 188 964 q 431 928 376 964 q 485 832 485 893 l 485 831 q 451 751 485 779 q 344 706 418 722 l 246 683 q 174 653 193 671 q 154 599 154 635 l 154 536 l 113 575 l 482 575 l 482 511 l 74 511 z "},"³":{"ha":563,"x_min":75,"x_max":492,"o":"m 283 504 q 139 540 190 504 q 75 653 88 575 l 157 653 l 157 647 q 189 588 157 611 q 283 565 221 565 q 375 584 342 565 q 408 638 408 603 l 408 640 q 321 711 408 711 l 204 711 l 204 767 l 321 767 q 406 832 406 767 l 406 833 q 373 885 406 867 q 283 904 340 904 q 190 881 221 904 q 158 822 158 858 l 158 817 l 78 817 q 142 928 92 893 q 283 964 192 964 q 433 931 378 964 q 488 839 488 897 q 463 775 488 799 q 394 746 439 751 l 394 732 q 467 701 443 726 q 492 635 492 675 q 435 539 492 574 q 283 504 379 504 z "},"⁴":{"ha":536,"x_min":61,"x_max":481,"o":"m 61 603 l 61 665 l 272 958 l 385 958 l 385 665 l 481 665 l 481 603 l 385 603 l 385 511 l 311 511 l 311 603 l 61 603 m 140 665 l 311 665 l 311 885 l 299 885 l 140 665 z "}," ":{"ha":340,"x_min":0,"x_max":0,"o":""}," ":{"ha":340,"x_min":0,"x_max":0,"o":""},"\r":{"ha":286,"x_min":0,"x_max":0,"o":""},".":{"ha":347,"x_min":117,"x_max":232,"o":"m 117 0 l 117 111 l 232 111 l 232 0 l 117 0 z "},",":{"ha":347,"x_min":111,"x_max":232,"o":"m 111 -165 l 174 0 l 117 0 l 117 111 l 232 111 l 232 0 l 165 -165 l 111 -165 z "},":":{"ha":361,"x_min":124,"x_max":239,"o":"m 124 0 l 124 111 l 239 111 l 239 0 l 124 0 m 124 631 l 124 742 l 239 742 l 239 631 l 124 631 z "},";":{"ha":361,"x_min":118,"x_max":239,"o":"m 118 -165 l 181 0 l 124 0 l 124 111 l 239 111 l 239 0 l 172 -165 l 118 -165 m 124 631 l 124 742 l 239 742 l 239 631 l 124 631 z "},"…":{"ha":947,"x_min":117,"x_max":832,"o":"m 117 0 l 117 111 l 232 111 l 232 0 l 117 0 m 417 0 l 417 111 l 532 111 l 532 0 l 417 0 m 717 0 l 717 111 l 832 111 l 832 0 l 717 0 z "},"!":{"ha":375,"x_min":129,"x_max":244,"o":"m 161 264 l 139 885 l 139 958 l 235 958 l 235 885 l 213 264 l 161 264 m 129 0 l 129 111 l 244 111 l 244 0 l 129 0 z "},"¡":{"ha":375,"x_min":129,"x_max":244,"o":"m 213 478 l 235 -143 l 235 -217 l 139 -217 l 139 -143 l 161 478 l 213 478 m 244 742 l 244 631 l 129 631 l 129 742 l 244 742 z "},"?":{"ha":783,"x_min":63,"x_max":714,"o":"m 340 264 l 336 356 q 363 455 333 417 q 460 517 393 493 q 588 590 550 546 q 626 697 626 633 l 626 714 q 563 848 626 801 q 389 894 500 894 q 211 838 268 894 q 154 689 154 782 l 154 686 l 63 686 q 166 903 86 835 q 389 972 246 972 q 629 903 544 972 q 714 711 714 835 l 714 699 q 692 588 714 636 q 622 503 669 539 q 497 443 575 468 q 422 399 446 426 q 396 331 399 372 l 392 264 l 340 264 m 308 0 l 308 111 l 424 111 l 424 0 l 308 0 z "},"¿":{"ha":783,"x_min":69,"x_max":721,"o":"m 444 478 l 449 386 q 421 287 451 325 q 324 225 390 249 q 195 152 233 196 q 157 44 157 108 l 157 28 q 221 -106 157 -60 q 394 -153 285 -153 q 572 -97 515 -153 q 629 53 629 -40 l 629 56 l 721 56 q 619 -162 699 -93 q 394 -231 539 -231 q 154 -161 239 -231 q 69 31 69 -92 l 69 43 q 92 155 69 107 q 162 239 114 203 q 286 299 210 275 q 363 342 339 315 q 389 411 386 369 l 393 478 l 444 478 m 476 742 l 476 631 l 361 631 l 361 742 l 476 742 z "},"·":{"ha":361,"x_min":124,"x_max":239,"o":"m 124 339 l 124 450 l 239 450 l 239 339 l 124 339 z "},"•":{"ha":540,"x_min":124,"x_max":417,"o":"m 124 254 l 124 535 l 417 535 l 417 254 l 124 254 z "},"*":{"ha":678,"x_min":97,"x_max":579,"o":"m 97 793 l 122 869 l 310 796 l 300 1003 l 379 1003 l 368 796 l 556 869 l 579 794 l 388 742 l 513 578 l 449 532 l 340 706 l 231 532 l 167 579 l 290 740 l 97 793 z "},"#":{"ha":990,"x_min":76,"x_max":914,"o":"m 192 0 l 358 958 l 435 958 l 268 0 l 192 0 m 556 0 l 722 958 l 799 958 l 632 0 l 556 0 m 128 608 l 128 679 l 914 679 l 914 608 l 128 608 m 76 279 l 76 350 l 863 350 l 863 279 l 76 279 z "},"/":{"ha":568,"x_min":25,"x_max":544,"o":"m 25 -172 l 456 1131 l 544 1131 l 114 -172 l 25 -172 z "},"\\":{"ha":565,"x_min":24,"x_max":543,"o":"m 454 -172 l 24 1131 l 113 1131 l 543 -172 l 454 -172 z "},"-":{"ha":543,"x_min":85,"x_max":457,"o":"m 85 358 l 85 431 l 457 431 l 457 358 l 85 358 z "},"–":{"ha":832,"x_min":85,"x_max":746,"o":"m 85 358 l 85 431 l 746 431 l 746 358 l 85 358 z "},"—":{"ha":1149,"x_min":85,"x_max":1063,"o":"m 85 358 l 85 431 l 1063 431 l 1063 358 l 85 358 z "},"_":{"ha":750,"x_min":65,"x_max":682,"o":"m 65 -126 l 65 -56 l 682 -56 l 682 -126 l 65 -126 z "},"(":{"ha":458,"x_min":86,"x_max":429,"o":"m 339 -172 q 151 114 217 -53 q 86 479 86 281 q 151 845 86 678 q 339 1131 217 1013 l 429 1131 q 235 839 297 988 q 172 514 172 690 l 172 444 q 235 119 172 268 q 429 -172 297 -29 l 339 -172 z "},")":{"ha":458,"x_min":29,"x_max":372,"o":"m 119 1131 q 308 845 243 1013 q 372 479 372 678 q 308 114 372 281 q 119 -172 243 -53 l 29 -172 q 224 119 163 -29 q 286 444 286 268 l 286 514 q 224 839 286 690 q 29 1131 163 988 l 119 1131 z "},"{":{"ha":558,"x_min":42,"x_max":506,"o":"m 257 -172 q 168 -83 168 -172 q 176 -9 168 -57 q 194 97 183 39 q 217 211 206 154 q 237 315 229 268 q 244 385 244 361 q 197 443 244 443 l 42 443 l 42 515 l 197 515 q 244 574 244 515 q 237 644 244 597 q 218 747 229 690 q 195 862 207 804 q 176 967 183 919 q 168 1042 168 1015 q 257 1131 168 1131 l 506 1131 l 506 1060 l 283 1060 q 251 1028 251 1060 q 259 970 251 1013 q 278 872 267 928 q 299 757 289 815 q 317 651 310 699 q 325 576 325 603 q 263 488 325 499 l 263 471 q 325 382 325 461 q 317 308 325 356 q 299 201 310 260 q 278 87 289 143 q 259 -12 267 31 q 251 -69 251 -54 q 283 -101 251 -101 l 506 -101 l 506 -172 l 257 -172 z "},"}":{"ha":558,"x_min":54,"x_max":518,"o":"m 301 1131 q 390 1042 390 1131 q 383 967 390 1015 q 364 862 375 919 q 341 747 353 804 q 322 644 329 690 q 314 574 314 597 q 361 515 314 515 l 518 515 l 518 443 l 361 443 q 314 385 314 443 q 322 315 314 361 q 341 211 329 268 q 364 97 353 154 q 383 -9 375 39 q 390 -83 390 -57 q 301 -172 390 -172 l 54 -172 l 54 -101 l 275 -101 q 307 -69 307 -101 q 299 -12 307 -54 q 281 87 292 31 q 260 201 271 143 q 241 308 249 260 q 233 382 233 356 q 297 471 233 461 l 297 488 q 233 576 233 497 q 241 651 233 603 q 260 757 249 699 q 281 872 271 815 q 299 970 292 928 q 307 1028 307 1013 q 275 1060 307 1060 l 54 1060 l 54 1131 l 301 1131 z "},"[":{"ha":494,"x_min":140,"x_max":442,"o":"m 140 -172 l 140 1131 l 442 1131 l 442 1060 l 224 1060 l 224 -101 l 442 -101 l 442 -172 l 140 -172 z "},"]":{"ha":494,"x_min":54,"x_max":356,"o":"m 356 1131 l 356 -172 l 54 -172 l 54 -101 l 271 -101 l 271 1060 l 54 1060 l 54 1131 l 356 1131 z "},"‚":{"ha":343,"x_min":111,"x_max":232,"o":"m 111 -165 l 174 0 l 117 0 l 117 111 l 232 111 l 232 0 l 165 -165 l 111 -165 z "},"„":{"ha":574,"x_min":126,"x_max":444,"o":"m 126 -165 l 189 0 l 132 0 l 132 111 l 247 111 l 247 0 l 181 -165 l 126 -165 m 324 -165 l 386 0 l 329 0 l 329 111 l 444 111 l 444 0 l 378 -165 l 324 -165 z "},"“":{"ha":569,"x_min":125,"x_max":443,"o":"m 443 958 l 381 793 l 438 793 l 438 682 l 322 682 l 322 793 l 389 958 l 443 958 m 246 958 l 183 793 l 240 793 l 240 682 l 125 682 l 125 793 l 192 958 l 246 958 z "},"”":{"ha":563,"x_min":128,"x_max":446,"o":"m 128 682 l 190 847 l 133 847 l 133 958 l 249 958 l 249 847 l 182 682 l 128 682 m 325 682 l 388 847 l 331 847 l 331 958 l 446 958 l 446 847 l 379 682 l 325 682 z "},"‘":{"ha":340,"x_min":108,"x_max":229,"o":"m 229 958 l 167 793 l 224 793 l 224 682 l 108 682 l 108 793 l 175 958 l 229 958 z "},"’":{"ha":331,"x_min":111,"x_max":232,"o":"m 111 682 l 174 847 l 117 847 l 117 958 l 232 958 l 232 847 l 165 682 l 111 682 z "},"«":{"ha":778,"x_min":71,"x_max":696,"o":"m 601 114 l 368 364 l 368 425 l 601 675 l 696 675 l 456 403 l 456 386 l 696 114 l 601 114 m 304 114 l 71 364 l 71 425 l 304 675 l 399 675 l 158 403 l 158 386 l 399 114 l 304 114 z "},"»":{"ha":778,"x_min":82,"x_max":707,"o":"m 176 675 l 408 425 l 408 364 l 176 114 l 82 114 l 322 386 l 322 403 l 82 675 l 176 675 m 474 675 l 707 425 l 707 364 l 474 114 l 379 114 l 619 386 l 619 403 l 379 675 l 474 675 z "},"‹":{"ha":481,"x_min":71,"x_max":399,"o":"m 304 114 l 71 364 l 71 425 l 304 675 l 399 675 l 158 403 l 158 386 l 399 114 l 304 114 z "},"›":{"ha":481,"x_min":82,"x_max":408,"o":"m 176 675 l 408 425 l 408 364 l 176 114 l 82 114 l 322 386 l 322 403 l 82 675 l 176 675 z "},"\"":{"ha":533,"x_min":124,"x_max":410,"o":"m 146 682 l 124 907 l 124 958 l 214 958 l 214 907 l 192 682 l 146 682 m 342 682 l 319 907 l 319 958 l 410 958 l 410 907 l 388 682 l 342 682 z "},"'":{"ha":303,"x_min":107,"x_max":197,"o":"m 129 682 l 107 907 l 107 958 l 197 958 l 197 907 l 175 682 l 129 682 z "},"ƒ":{"ha":660,"x_min":68,"x_max":599,"o":"m 68 0 l 68 74 l 275 74 l 275 893 q 342 958 275 958 l 599 958 l 599 885 l 363 885 l 363 65 q 297 0 363 0 l 68 0 m 68 571 l 68 639 l 599 639 l 599 571 l 68 571 z "},"@":{"ha":1293,"x_min":83,"x_max":1206,"o":"m 644 -143 q 345 -74 471 -143 q 151 121 219 -6 q 83 422 83 247 q 151 724 83 597 q 345 919 219 851 q 644 988 471 988 q 944 919 818 988 q 1138 724 1069 851 q 1206 422 1206 597 q 1134 176 1206 264 q 943 89 1063 89 q 847 117 883 89 q 804 188 811 144 l 789 188 q 588 89 728 89 q 435 134 490 89 q 379 260 379 179 q 435 388 379 342 q 601 446 492 435 l 794 464 l 794 404 l 624 388 q 501 351 539 379 q 464 272 464 324 l 464 269 q 503 186 464 214 q 615 158 542 158 q 794 318 794 158 l 794 419 l 794 435 l 794 494 q 758 625 794 585 q 640 665 721 665 q 548 647 582 665 q 500 605 514 629 q 485 560 486 581 l 485 560 l 400 560 q 483 691 422 647 q 643 735 544 735 q 818 676 758 735 q 878 501 878 617 l 878 242 q 946 158 878 158 q 1076 222 1028 158 q 1124 406 1124 285 l 1124 440 q 999 790 1124 667 q 644 914 874 914 q 289 790 414 914 q 164 440 164 667 l 164 406 q 289 55 164 179 q 644 -69 414 -69 l 1046 -69 l 1046 -143 l 644 -143 z "},"&":{"ha":981,"x_min":92,"x_max":922,"o":"m 806 0 l 317 578 q 238 685 261 638 q 215 785 215 733 q 266 914 215 869 q 414 958 317 958 l 747 958 l 747 885 l 419 885 q 300 785 300 885 q 319 717 300 751 q 390 626 339 683 l 922 0 l 806 0 m 401 -14 q 171 58 250 -14 q 92 271 92 131 q 163 461 92 392 q 369 542 235 531 l 392 479 q 235 422 286 469 q 183 278 183 374 l 183 268 q 238 113 183 163 q 404 63 292 63 q 575 88 499 63 q 710 161 651 114 l 747 101 l 697 101 q 583 16 658 46 q 401 -14 508 -14 m 754 164 l 697 214 l 751 214 l 751 550 l 829 550 l 829 401 q 822 283 829 328 q 799 210 815 238 q 754 164 783 183 z "},"¶":{"ha":761,"x_min":50,"x_max":621,"o":"m 543 0 l 543 886 l 428 886 l 428 439 l 319 439 q 119 506 189 439 q 50 693 50 574 q 125 892 50 825 q 339 958 200 958 l 621 958 l 621 0 l 543 0 z "},"§":{"ha":836,"x_min":92,"x_max":753,"o":"m 429 -186 q 253 -165 325 -186 q 143 -93 182 -144 q 96 51 104 -42 l 181 51 l 181 49 q 203 -35 181 1 q 279 -91 225 -71 q 429 -111 333 -111 q 653 35 653 -111 q 617 123 653 88 q 494 174 581 158 l 296 206 q 139 279 186 226 q 92 400 92 332 q 116 501 92 457 q 186 571 140 544 l 186 586 q 99 749 99 639 q 177 908 99 843 q 410 972 256 972 q 633 912 556 972 q 731 728 710 851 l 644 728 l 644 731 q 622 806 644 768 q 549 871 600 844 q 410 897 497 897 q 239 856 297 897 q 181 743 181 815 q 222 658 181 688 q 349 613 264 628 l 547 581 q 706 506 658 558 q 753 385 753 454 q 728 285 753 329 q 657 214 703 242 l 657 199 q 714 128 693 172 q 735 38 735 83 q 660 -126 735 -67 q 429 -186 585 -186 m 608 233 q 655 285 638 253 q 672 361 672 318 q 636 452 672 415 q 510 507 600 489 l 235 551 q 188 500 206 533 q 171 425 171 467 q 208 334 171 372 q 335 278 244 296 l 608 233 z "},"©":{"ha":1253,"x_min":72,"x_max":1181,"o":"m 626 -100 q 403 -58 504 -100 q 227 60 301 -17 q 113 243 153 136 q 72 479 72 350 q 113 715 72 608 q 227 899 153 822 q 403 1017 301 975 q 626 1058 504 1058 q 915 985 790 1058 q 1110 783 1039 913 q 1181 479 1181 653 q 1110 176 1181 307 q 915 -27 1039 46 q 626 -100 790 -100 m 626 -26 q 876 37 768 -26 q 1044 210 983 100 q 1104 463 1104 321 l 1104 496 q 1044 749 1104 639 q 876 922 983 858 q 626 985 768 985 q 378 922 486 985 q 209 749 269 858 q 149 496 149 639 l 149 463 q 209 210 149 321 q 378 37 269 100 q 626 -26 486 -26 m 626 139 q 408 227 488 139 q 328 479 328 315 q 408 732 328 644 q 626 819 488 819 q 815 760 740 819 q 911 590 889 701 l 826 590 l 826 590 q 806 662 826 626 q 742 721 786 697 q 626 744 699 744 q 467 688 519 744 q 415 506 415 632 l 415 454 q 467 271 415 328 q 626 214 519 214 q 742 238 699 214 q 806 299 786 261 q 826 378 826 338 l 826 379 l 913 379 q 818 201 893 263 q 626 139 743 139 z "},"®":{"ha":843,"x_min":78,"x_max":765,"o":"m 422 301 q 247 348 325 301 q 123 476 168 394 q 78 658 78 557 q 123 842 78 761 q 247 970 168 924 q 422 1017 325 1017 q 598 970 521 1017 q 720 842 675 924 q 765 658 765 761 q 720 476 765 557 q 598 348 675 394 q 422 301 521 301 m 489 474 l 418 651 l 483 663 l 561 474 l 489 474 m 422 368 q 620 445 546 368 q 694 651 694 522 l 694 668 q 620 874 694 797 q 422 950 546 950 q 224 874 299 950 q 150 668 150 797 l 150 651 q 224 445 150 522 q 422 368 299 368 m 296 474 l 296 844 l 451 844 q 531 815 501 844 q 561 733 561 785 q 531 656 561 685 q 451 626 501 626 l 363 626 l 363 474 l 296 474 m 361 678 l 446 678 q 494 728 494 678 l 494 738 q 446 786 494 786 l 361 786 l 361 678 z "},"™":{"ha":1311,"x_min":50,"x_max":1197,"o":"m 236 422 l 236 893 l 50 893 l 50 958 l 501 958 l 501 893 l 315 893 l 315 422 l 236 422 m 610 422 l 610 958 l 754 958 l 896 558 l 911 558 l 1053 958 l 1197 958 l 1197 422 l 1118 422 l 1118 899 l 1103 899 l 939 422 l 867 422 l 703 899 l 688 899 l 688 422 l 610 422 z "},"°":{"ha":574,"x_min":56,"x_max":518,"o":"m 286 488 q 116 551 176 488 q 56 729 56 614 q 116 908 56 844 q 286 971 176 971 q 456 908 394 971 q 518 729 518 844 q 456 551 518 614 q 286 488 394 488 m 286 553 q 444 714 444 553 l 444 744 q 286 906 444 906 q 129 744 129 906 l 129 714 q 286 553 129 553 z "},"|":{"ha":382,"x_min":149,"x_max":232,"o":"m 149 -172 l 149 1131 l 232 1131 l 232 -172 l 149 -172 z "},"¦":{"ha":382,"x_min":149,"x_max":232,"o":"m 149 556 l 149 1131 l 232 1131 l 232 556 l 149 556 m 149 -172 l 149 403 l 232 403 l 232 -172 l 149 -172 z "},"†":{"ha":610,"x_min":46,"x_max":563,"o":"m 261 0 l 274 651 l 46 638 l 46 718 l 274 704 l 261 958 l 347 958 l 335 704 l 563 718 l 563 638 l 335 651 l 347 0 l 261 0 z "},"ℓ":{"ha":846,"x_min":54,"x_max":778,"o":"m 482 -14 q 261 101 331 -14 q 192 479 192 215 q 223 765 192 657 q 322 923 254 874 q 496 972 389 972 q 703 900 628 972 q 778 703 778 828 q 754 582 778 633 q 676 490 731 531 q 532 411 622 449 l 54 213 l 54 292 l 492 471 q 610 532 568 501 q 671 601 653 563 q 689 694 689 640 l 689 706 q 640 847 689 799 q 496 896 592 896 q 332 821 381 896 q 283 564 283 746 l 283 394 q 328 138 283 214 q 482 63 374 63 q 596 89 554 63 q 656 153 638 115 q 674 224 674 190 l 674 224 l 764 224 q 669 47 740 107 q 482 -14 597 -14 z "},"‡":{"ha":679,"x_min":82,"x_max":597,"o":"m 82 638 l 82 718 l 310 704 l 296 958 l 382 958 l 369 704 l 597 718 l 597 638 l 369 651 l 310 651 l 82 638 m 296 0 l 310 254 l 82 240 l 82 321 l 310 307 l 369 307 l 597 321 l 597 240 l 369 254 l 382 0 l 296 0 m 306 276 l 306 683 l 374 683 l 374 276 l 306 276 z "},"℮":{"ha":1233,"x_min":72,"x_max":1169,"o":"m 621 943 q 449 910 532 943 q 301 815 367 876 q 274 749 274 790 l 274 507 q 288 493 274 493 l 954 493 q 968 507 968 493 l 968 749 q 940 815 968 790 q 792 910 875 876 q 621 943 710 943 m 621 972 q 834 934 735 972 q 1009 828 933 896 q 1127 672 1085 761 q 1169 479 1169 582 l 1169 465 l 288 465 q 274 451 274 465 l 274 210 q 301 143 274 168 q 449 49 367 82 q 621 15 532 15 q 814 58 722 15 q 971 176 906 100 l 1054 176 q 863 36 976 86 q 621 -14 749 -14 q 408 24 507 -14 q 233 131 308 63 q 115 288 157 199 q 72 479 72 378 q 115 672 72 582 q 233 828 157 761 q 408 934 308 896 q 621 972 507 972 z "},"¢":{"ha":831,"x_min":90,"x_max":740,"o":"m 421 -7 q 178 90 265 -7 q 90 371 90 186 q 178 653 90 557 q 421 749 265 749 q 632 685 550 749 q 739 499 714 621 l 650 499 l 650 499 q 627 578 650 538 q 553 646 604 618 q 421 674 503 674 q 242 607 303 674 q 182 394 182 540 l 182 347 q 242 135 182 201 q 421 68 303 68 q 553 96 503 68 q 627 167 604 124 q 650 254 650 210 l 650 254 l 740 254 q 636 60 719 126 q 421 -7 553 -7 m 383 -128 l 383 33 l 460 33 l 460 -128 l 383 -128 m 383 708 l 383 869 l 460 869 l 460 708 l 383 708 z "},"¤":{"ha":829,"x_min":106,"x_max":728,"o":"m 419 181 q 249 222 314 181 q 155 331 185 263 q 125 482 125 400 q 155 632 125 564 q 249 742 185 700 q 419 783 314 783 q 586 742 525 783 q 674 632 647 700 q 701 482 701 564 q 674 331 701 400 q 586 222 647 263 q 419 181 525 181 m 169 115 l 106 167 l 206 289 l 264 231 l 169 115 m 665 115 l 571 231 l 628 289 l 728 167 l 665 115 m 419 257 q 544 284 503 257 q 598 358 585 311 q 611 465 611 406 l 611 497 q 598 604 611 557 q 544 678 585 651 q 419 706 503 706 q 292 678 336 706 q 231 604 247 651 q 215 497 215 557 l 215 465 q 231 358 215 406 q 292 284 247 311 q 419 257 336 257 m 206 672 l 106 793 l 169 846 l 264 731 l 206 672 m 628 672 l 571 731 l 665 846 l 728 793 l 628 672 z "},"$":{"ha":892,"x_min":86,"x_max":808,"o":"m 450 -7 q 203 60 292 -7 q 86 276 114 126 l 179 276 l 179 276 q 245 129 179 188 q 450 71 311 71 q 649 117 578 71 q 719 250 719 164 l 719 258 q 676 360 719 324 q 529 418 632 397 l 328 457 q 145 540 204 483 q 86 697 86 597 q 180 895 86 825 q 442 965 274 965 q 686 899 599 965 q 800 682 774 832 l 708 682 l 708 682 q 645 828 708 768 q 442 888 582 888 q 247 841 317 888 q 176 708 176 794 l 176 700 q 219 598 176 636 q 363 540 263 560 l 565 501 q 749 418 690 475 q 808 261 808 361 q 715 63 808 133 q 450 -7 621 -7 m 410 -128 l 410 33 l 486 33 l 486 -128 l 410 -128 m 406 915 l 406 1086 l 482 1086 l 482 915 l 406 915 z "},"€":{"ha":1029,"x_min":78,"x_max":957,"o":"m 579 -14 q 289 111 396 -14 q 182 479 182 236 q 289 847 182 722 q 579 972 396 972 q 822 896 725 972 q 953 671 919 819 l 865 671 l 865 672 q 835 772 865 721 q 741 858 804 824 q 579 893 678 893 q 353 803 431 893 q 276 526 276 714 l 276 432 q 353 155 276 244 q 579 65 431 65 q 743 101 681 65 q 835 192 806 138 q 865 301 865 247 l 865 307 l 957 307 q 829 68 928 150 q 579 -14 731 -14 m 78 361 l 78 429 l 686 429 l 686 361 l 78 361 m 78 549 l 78 617 l 686 617 l 686 549 l 78 549 z "},"£":{"ha":881,"x_min":78,"x_max":800,"o":"m 103 0 l 103 75 q 206 178 164 121 q 247 306 247 236 q 232 406 247 358 q 197 500 217 454 q 161 593 176 546 q 146 694 146 640 q 183 835 146 772 q 290 935 219 899 q 461 972 360 972 q 681 906 594 972 q 789 682 768 840 l 699 682 l 699 686 q 667 807 699 761 q 583 873 636 853 q 461 893 529 893 q 294 844 357 893 q 232 703 232 794 l 232 686 q 246 590 232 636 q 278 497 260 543 q 311 403 297 450 q 325 307 325 357 q 291 172 325 231 q 204 79 257 113 l 800 79 l 800 0 l 103 0 m 78 429 l 78 501 l 628 501 l 628 429 l 78 429 z "},"¥":{"ha":893,"x_min":39,"x_max":854,"o":"m 401 0 l 401 404 l 39 958 l 139 958 l 440 496 l 456 496 l 757 958 l 854 958 l 490 404 l 490 0 l 401 0 m 156 215 l 156 283 l 736 283 l 736 215 l 156 215 m 156 404 l 156 472 l 736 472 l 736 404 l 156 404 z "},"∙":{"ha":726,"x_min":306,"x_max":421,"o":"m 306 413 l 306 524 l 421 524 l 421 413 l 306 413 z "},"∕":{"ha":726,"x_min":75,"x_max":651,"o":"m 75 0 l 565 958 l 651 958 l 160 0 l 75 0 z "},"+":{"ha":726,"x_min":57,"x_max":669,"o":"m 325 157 l 325 779 l 401 779 l 401 157 l 325 157 m 57 432 l 57 504 l 669 504 l 669 432 l 57 432 z "},"−":{"ha":726,"x_min":57,"x_max":669,"o":"m 57 432 l 57 504 l 669 504 l 669 432 l 57 432 z "},"×":{"ha":726,"x_min":92,"x_max":633,"o":"m 143 197 l 92 247 l 583 739 l 633 689 l 143 197 m 582 199 l 93 688 l 143 738 l 632 249 l 582 199 z "},"÷":{"ha":726,"x_min":57,"x_max":669,"o":"m 313 669 l 313 768 l 411 768 l 411 669 l 313 669 m 313 168 l 313 267 l 411 267 l 411 168 l 313 168 m 57 432 l 57 504 l 669 504 l 669 432 l 57 432 z "},"=":{"ha":726,"x_min":57,"x_max":669,"o":"m 57 561 l 57 633 l 669 633 l 669 561 l 57 561 m 57 303 l 57 375 l 669 375 l 669 303 l 57 303 z "},"≠":{"ha":726,"x_min":57,"x_max":669,"o":"m 188 157 l 474 779 l 543 779 l 257 157 l 188 157 m 57 563 l 57 633 l 669 633 l 669 563 l 57 563 m 57 303 l 57 374 l 669 374 l 669 303 l 57 303 z "},">":{"ha":726,"x_min":63,"x_max":675,"o":"m 63 151 l 63 228 l 596 460 l 596 476 l 63 708 l 63 785 l 675 514 l 675 422 l 63 151 z "},"<":{"ha":726,"x_min":51,"x_max":664,"o":"m 664 785 l 664 708 l 129 476 l 129 460 l 664 228 l 664 151 l 51 422 l 51 514 l 664 785 z "},"≥":{"ha":726,"x_min":61,"x_max":674,"o":"m 61 239 l 61 317 l 596 538 l 596 554 l 61 775 l 61 853 l 674 592 l 674 500 l 61 239 m 61 26 l 61 97 l 674 97 l 674 26 l 61 26 z "},"≤":{"ha":726,"x_min":51,"x_max":665,"o":"m 665 239 l 51 500 l 51 592 l 665 853 l 665 775 l 131 554 l 131 538 l 665 317 l 665 239 m 51 26 l 51 97 l 665 97 l 665 26 l 51 26 z "},"±":{"ha":726,"x_min":57,"x_max":669,"o":"m 57 510 l 57 582 l 669 582 l 669 510 l 57 510 m 325 244 l 325 847 l 401 847 l 401 244 l 325 244 m 57 26 l 57 97 l 669 97 l 669 26 l 57 26 z "},"≈":{"ha":726,"x_min":58,"x_max":671,"o":"m 58 525 q 92 637 58 599 q 189 675 125 675 q 276 663 229 675 q 372 633 324 650 q 461 603 419 615 q 532 590 503 590 q 600 669 600 590 l 671 669 q 638 558 671 597 q 540 519 604 519 q 452 532 500 519 q 357 562 404 544 q 267 592 310 579 q 196 604 225 604 q 128 525 128 604 l 58 525 m 58 267 q 92 378 58 340 q 189 417 125 417 q 276 404 229 417 q 372 374 324 392 q 461 344 419 357 q 532 332 503 332 q 600 411 600 332 l 671 411 q 638 300 671 339 q 540 261 604 261 q 452 274 500 261 q 357 303 404 286 q 267 333 310 321 q 196 346 225 346 q 128 267 128 346 l 58 267 z "},"~":{"ha":726,"x_min":57,"x_max":669,"o":"m 57 396 q 90 508 57 469 q 188 546 124 546 q 275 533 228 546 q 370 503 322 521 q 460 474 418 486 q 531 461 501 461 q 599 540 599 461 l 669 540 q 636 429 669 468 q 539 390 603 390 q 451 403 499 390 q 356 433 403 415 q 266 463 308 450 q 194 475 224 475 q 126 396 126 475 l 57 396 z "},"¬":{"ha":726,"x_min":53,"x_max":665,"o":"m 590 206 l 590 474 l 642 432 l 53 432 l 53 504 l 665 504 l 665 206 l 590 206 z "},"^":{"ha":726,"x_min":82,"x_max":643,"o":"m 82 599 l 315 958 l 410 958 l 643 599 l 550 599 l 371 885 l 356 885 l 175 599 l 82 599 z "},"∞":{"ha":956,"x_min":96,"x_max":860,"o":"m 269 292 q 177 313 217 292 q 117 374 138 335 q 96 468 96 414 q 117 562 96 522 q 176 623 138 601 q 268 644 215 644 q 383 615 331 644 q 471 533 435 586 l 485 533 q 573 615 521 586 q 688 644 625 644 q 779 623 740 644 q 839 562 818 601 q 860 468 860 522 q 839 374 860 414 q 779 313 818 335 q 688 292 740 292 q 573 322 625 292 q 485 403 521 351 l 471 403 q 383 322 436 351 q 269 292 331 292 m 275 365 q 446 468 376 365 q 275 571 376 571 q 174 471 174 571 l 174 465 q 275 365 174 365 m 682 365 q 782 465 782 365 l 782 471 q 682 571 782 571 q 510 468 581 571 q 682 365 581 365 z "},"∫":{"ha":474,"x_min":43,"x_max":433,"o":"m 43 0 l 43 74 l 199 74 l 199 897 q 260 958 199 958 l 433 958 l 433 885 l 276 885 l 276 61 q 215 0 276 0 l 43 0 z "},"Ω":{"ha":1014,"x_min":93,"x_max":921,"o":"m 101 0 l 101 79 l 314 79 l 314 94 q 208 190 258 129 q 125 332 157 250 q 93 513 93 414 q 147 754 93 651 q 295 915 201 857 q 507 972 389 972 q 719 915 626 972 q 867 754 813 857 q 921 513 921 651 q 889 332 921 414 q 807 190 857 250 q 700 94 757 129 l 700 79 l 913 79 l 913 0 l 614 0 l 614 107 q 717 202 669 149 q 796 327 765 256 q 826 490 826 399 l 826 536 q 784 733 826 653 q 669 853 742 813 q 507 893 597 893 q 344 853 417 893 q 229 733 271 813 q 188 536 188 653 l 188 490 q 218 327 188 399 q 297 202 249 256 q 399 107 344 149 l 399 0 l 101 0 z "},"∆":{"ha":906,"x_min":56,"x_max":849,"o":"m 56 0 l 56 79 l 396 958 l 508 958 l 849 79 l 849 0 l 56 0 m 146 79 l 756 79 l 458 867 l 443 867 l 146 79 z "},"∏":{"ha":1060,"x_min":44,"x_max":1015,"o":"m 769 0 l 769 885 l 289 885 l 289 0 l 200 0 l 200 885 l 44 885 l 44 958 l 1015 958 l 1015 885 l 860 885 l 860 0 l 769 0 z "},"∑":{"ha":829,"x_min":72,"x_max":764,"o":"m 72 0 l 72 74 l 400 479 l 75 885 l 75 958 l 739 958 l 739 885 l 178 885 l 500 479 l 174 74 l 764 74 l 764 0 l 72 0 z "},"√":{"ha":774,"x_min":63,"x_max":714,"o":"m 283 0 l 63 494 l 156 494 l 343 76 l 360 76 l 626 958 l 714 958 l 424 0 l 283 0 z "},"µ":{"ha":853,"x_min":136,"x_max":717,"o":"m 136 -228 l 136 742 l 222 742 l 222 292 q 272 117 222 172 q 426 63 321 63 q 582 117 533 63 q 631 292 631 172 l 631 742 l 717 742 l 717 0 l 639 0 l 639 104 l 624 104 q 529 16 586 46 q 390 -14 472 -14 q 258 22 313 -14 q 186 117 203 57 l 208 126 q 219 22 215 61 q 222 -49 222 -17 l 222 -228 l 136 -228 z "},"∂":{"ha":835,"x_min":81,"x_max":751,"o":"m 422 -14 q 171 81 261 -14 q 81 343 81 175 q 117 535 81 456 q 221 658 153 615 q 383 700 289 700 q 530 670 468 700 q 617 606 592 640 l 632 606 q 590 690 619 646 q 511 776 560 735 q 394 849 463 818 q 236 893 326 881 l 236 972 q 462 899 365 951 q 623 765 558 846 q 719 582 688 685 q 751 358 751 479 q 665 83 751 179 q 422 -14 578 -14 m 422 63 q 603 128 543 63 q 663 328 663 193 l 663 358 q 602 559 663 494 q 417 624 542 624 q 233 559 293 624 q 172 358 172 494 l 172 328 q 234 128 172 193 q 422 63 296 63 z "},"%":{"ha":1175,"x_min":67,"x_max":1108,"o":"m 135 0 l 944 958 l 1040 958 l 231 0 l 135 0 m 318 500 q 178 532 233 500 q 94 618 122 564 q 67 738 67 672 q 94 855 67 801 q 178 940 122 908 q 318 972 233 972 q 458 940 403 972 q 542 855 514 908 q 569 738 569 801 q 542 618 569 672 q 458 532 514 564 q 318 500 403 500 m 318 569 q 446 609 404 569 q 488 722 488 649 l 488 751 q 446 864 488 825 q 318 903 404 903 q 190 864 232 903 q 149 751 149 825 l 149 722 q 190 609 149 649 q 318 569 232 569 m 857 -14 q 717 18 772 -14 q 633 104 661 50 q 606 222 606 158 q 633 341 606 288 q 717 426 661 394 q 857 458 772 458 q 997 426 942 458 q 1081 341 1053 394 q 1108 222 1108 288 q 1081 104 1108 158 q 997 18 1053 50 q 857 -14 942 -14 m 857 56 q 985 95 943 56 q 1028 208 1028 135 l 1028 238 q 985 350 1028 311 q 857 389 943 389 q 729 350 771 389 q 688 238 688 311 l 688 208 q 729 95 688 135 q 857 56 771 56 z "},"‰":{"ha":1756,"x_min":67,"x_max":1700,"o":"m 135 0 l 944 958 l 1040 958 l 231 0 l 135 0 m 318 500 q 178 532 233 500 q 94 618 122 564 q 67 738 67 672 q 94 855 67 801 q 178 940 122 908 q 318 972 233 972 q 458 940 403 972 q 542 855 514 908 q 569 738 569 801 q 542 618 569 672 q 458 532 514 564 q 318 500 403 500 m 318 569 q 446 609 404 569 q 488 722 488 649 l 488 751 q 446 864 488 825 q 318 903 404 903 q 190 864 232 903 q 149 751 149 825 l 149 722 q 190 609 149 649 q 318 569 232 569 m 857 -14 q 717 18 772 -14 q 633 104 661 50 q 606 222 606 158 q 633 341 606 288 q 717 426 661 394 q 857 458 772 458 q 997 426 942 458 q 1081 341 1053 394 q 1108 222 1108 288 q 1081 104 1108 158 q 997 18 1053 50 q 857 -14 942 -14 m 857 56 q 985 95 943 56 q 1028 208 1028 135 l 1028 238 q 985 350 1028 311 q 857 389 943 389 q 729 350 771 389 q 688 238 688 311 l 688 208 q 729 95 688 135 q 857 56 771 56 m 1449 -14 q 1308 18 1364 -14 q 1224 104 1251 50 q 1196 222 1196 158 q 1224 341 1196 288 q 1308 426 1251 394 q 1449 458 1364 458 q 1589 426 1533 458 q 1672 341 1644 394 q 1700 222 1700 288 q 1672 104 1700 158 q 1589 18 1644 50 q 1449 -14 1533 -14 m 1449 56 q 1576 95 1535 56 q 1618 208 1618 135 l 1618 238 q 1576 350 1618 311 q 1449 389 1535 389 q 1320 350 1363 389 q 1278 238 1278 311 l 1278 208 q 1320 95 1278 135 q 1449 56 1363 56 z "},"◊":{"ha":964,"x_min":72,"x_max":892,"o":"m 432 0 l 72 479 l 432 958 l 533 958 l 892 479 l 533 0 l 432 0 m 475 76 l 490 76 l 788 479 l 490 883 l 475 883 l 176 479 l 475 76 z "},"̈":{"ha":0,"x_min":83,"x_max":472,"o":"m 83 882 l 83 986 l 196 986 l 196 882 l 83 882 m 360 882 l 360 986 l 472 986 l 472 882 l 360 882 z "},"̇":{"ha":0,"x_min":224,"x_max":332,"o":"m 224 882 l 224 986 l 332 986 l 332 882 l 224 882 z "},"̀":{"ha":0,"x_min":135,"x_max":333,"o":"m 269 825 l 135 1031 l 231 1031 l 333 825 l 269 825 z "},"́":{"ha":0,"x_min":211,"x_max":410,"o":"m 211 825 l 314 1031 l 410 1031 l 275 825 l 211 825 z "},"̋":{"ha":0,"x_min":108,"x_max":513,"o":"m 108 825 l 211 1031 l 307 1031 l 172 825 l 108 825 m 314 825 l 417 1031 l 513 1031 l 378 825 l 314 825 z "},"̂":{"ha":0,"x_min":69,"x_max":486,"o":"m 69 825 l 239 1031 l 317 1031 l 486 825 l 413 825 l 286 961 l 269 961 l 143 825 l 69 825 z "},"̌":{"ha":0,"x_min":69,"x_max":486,"o":"m 486 1031 l 317 825 l 239 825 l 69 1031 l 143 1031 l 269 896 l 286 896 l 413 1031 l 486 1031 z "},"̆":{"ha":0,"x_min":79,"x_max":476,"o":"m 278 819 q 138 869 189 819 q 79 1031 88 918 l 153 1031 l 153 1031 q 185 917 153 951 q 278 883 218 883 q 370 917 338 883 q 403 1031 403 951 l 403 1031 l 476 1031 q 417 869 468 918 q 278 819 367 819 z "},"̊":{"ha":0,"x_min":138,"x_max":418,"o":"m 278 814 q 176 851 215 814 q 138 947 138 888 q 176 1044 138 1008 q 278 1081 215 1081 q 380 1044 342 1081 q 418 947 418 1008 q 380 851 418 888 q 278 814 342 814 m 278 867 q 354 946 354 867 l 354 949 q 278 1028 354 1028 q 201 949 201 1028 l 201 946 q 278 867 201 867 z "},"̃":{"ha":0,"x_min":85,"x_max":471,"o":"m 364 825 q 300 846 322 825 q 263 894 278 867 q 234 943 249 922 q 192 964 219 964 q 143 911 143 964 l 143 831 l 85 831 l 85 914 q 113 996 85 967 q 192 1025 142 1025 q 256 1004 233 1025 q 292 956 278 983 q 322 907 307 928 q 364 886 338 886 q 413 939 413 886 l 413 1019 l 471 1019 l 471 936 q 442 855 471 885 q 364 825 414 825 z "},"̄":{"ha":0,"x_min":0,"x_max":389,"o":"m 0 893 l 0 960 l 389 960 l 389 893 l 0 893 z "},"̒":{"ha":0,"x_min":-54,"x_max":60,"o":"m 60 1060 l 1 929 l 54 929 l 54 825 l -54 825 l -54 929 l 8 1060 l 60 1060 z "},"̦":{"ha":0,"x_min":26,"x_max":140,"o":"m 26 -318 l 85 -187 l 32 -187 l 32 -83 l 140 -83 l 140 -187 l 78 -318 l 26 -318 z "},"̧":{"ha":0,"x_min":174,"x_max":453,"o":"m 174 -242 l 174 -182 l 339 -182 q 382 -147 382 -182 q 339 -112 382 -112 l 244 -112 l 244 14 l 311 14 l 311 -83 l 286 -61 l 343 -61 q 453 -150 453 -61 q 343 -242 453 -242 l 174 -242 z "},"̨":{"ha":0,"x_min":58,"x_max":297,"o":"m 157 -222 q 58 -144 58 -222 q 83 -73 58 -108 q 163 -15 107 -37 l 163 18 l 278 0 q 156 -72 189 -39 q 124 -128 124 -104 q 167 -162 124 -162 l 297 -162 l 297 -222 l 157 -222 z "},"¨":{"ha":556,"x_min":83,"x_max":472,"o":"m 83 882 l 83 986 l 196 986 l 196 882 l 83 882 m 360 882 l 360 986 l 472 986 l 472 882 l 360 882 z "},"˙":{"ha":556,"x_min":224,"x_max":332,"o":"m 224 882 l 224 986 l 332 986 l 332 882 l 224 882 z "},"`":{"ha":556,"x_min":135,"x_max":333,"o":"m 269 825 l 135 1031 l 231 1031 l 333 825 l 269 825 z "},"´":{"ha":556,"x_min":211,"x_max":410,"o":"m 211 825 l 314 1031 l 410 1031 l 275 825 l 211 825 z "},"˝":{"ha":556,"x_min":121,"x_max":500,"o":"m 121 825 l 224 1031 l 319 1031 l 185 825 l 121 825 m 301 825 l 404 1031 l 500 1031 l 365 825 l 301 825 z "},"ˆ":{"ha":556,"x_min":69,"x_max":486,"o":"m 69 825 l 239 1031 l 317 1031 l 486 825 l 413 825 l 286 961 l 269 961 l 143 825 l 69 825 z "},"ˉ":{"ha":556,"x_min":108,"x_max":447,"o":"m 108 896 l 108 961 l 447 961 l 447 896 l 108 896 z "},"ˇ":{"ha":556,"x_min":69,"x_max":486,"o":"m 486 1031 l 317 825 l 239 825 l 69 1031 l 143 1031 l 269 896 l 286 896 l 413 1031 l 486 1031 z "},"˘":{"ha":556,"x_min":79,"x_max":476,"o":"m 278 819 q 138 869 189 819 q 79 1031 88 918 l 153 1031 l 153 1031 q 185 917 153 951 q 278 883 218 883 q 370 917 338 883 q 403 1031 403 951 l 403 1031 l 476 1031 q 417 869 468 918 q 278 819 367 819 z "},"˚":{"ha":556,"x_min":138,"x_max":418,"o":"m 278 814 q 176 851 215 814 q 138 947 138 888 q 176 1044 138 1008 q 278 1081 215 1081 q 380 1044 342 1081 q 418 947 418 1008 q 380 851 418 888 q 278 814 342 814 m 278 867 q 354 946 354 867 l 354 949 q 278 1028 354 1028 q 201 949 201 1028 l 201 946 q 278 867 201 867 z "},"˜":{"ha":556,"x_min":85,"x_max":471,"o":"m 364 825 q 300 846 322 825 q 263 894 278 867 q 234 943 249 922 q 192 964 219 964 q 143 911 143 964 l 143 831 l 85 831 l 85 914 q 113 996 85 967 q 192 1025 142 1025 q 256 1004 233 1025 q 292 956 278 983 q 322 907 307 928 q 364 886 338 886 q 413 939 413 886 l 413 1019 l 471 1019 l 471 936 q 442 855 471 885 q 364 825 414 825 z "},"¯":{"ha":556,"x_min":108,"x_max":447,"o":"m 108 896 l 108 961 l 447 961 l 447 896 l 108 896 z "},"¸":{"ha":556,"x_min":174,"x_max":453,"o":"m 174 -242 l 174 -182 l 339 -182 q 382 -147 382 -182 q 339 -112 382 -112 l 244 -112 l 244 14 l 311 14 l 311 -83 l 286 -61 l 343 -61 q 453 -150 453 -61 q 343 -242 453 -242 l 174 -242 z "},"˛":{"ha":556,"x_min":58,"x_max":297,"o":"m 157 -222 q 58 -144 58 -222 q 83 -73 58 -108 q 163 -15 107 -37 l 163 18 l 278 0 q 156 -72 189 -39 q 124 -128 124 -104 q 167 -162 124 -162 l 297 -162 l 297 -222 l 157 -222 z "}}}
